<svg id="Capa_3" data-name="Capa 3" xmlns="http://www.w3.org/2000/svg" viewBox="0 0 4000 4000"><defs><style>.cls-1{fill:#fff;}</style></defs><title>Royal Blue White</title><g id="White"><path class="cls-1" d="M1758.3,1499.4c58.18-37.72,168.79-28.77,168.79-28.77,28.13,17.26,101,40.92,101,40.92C1881.06,1578.46,1758.3,1499.4,1758.3,1499.4Z"/><path class="cls-1" d="M1852.48,3014.35c78.7,72.07,193,138.67,358.48,186.33,0,0-795.34,214.82-895.07-416.85,0,0-57.53,108.66-57.54,203.27l-.05,0c-2.07-3.12-73.93-113.43-61.33-355.39,1.11-21.33,3-41.93,5.45-61.79,26-208.79,119.86-334.6,119.86-334.6s-134.26,62.66-211,185.41c0,0,48.59-291.54,319.67-483.34s728.31-173.13,833.8-180.8,270.17-16.65,391.17-97.95c0,0-74.16,173.9-188,249.34,0,0-448.81-1.28-658.52,200.75S1589.66,2635,1603.09,2736.59c0,0,32.47-101.09,86.17-161.19C1689.26,2575.4,1635.55,2815.68,1852.48,3014.35Z"/><path class="cls-1" d="M2000,495c-831.19,0-1505,673.81-1505,1505s673.81,1505,1505,1505,1505-673.81,1505-1505S2831.19,495,2000,495ZM1244.93,801.29c190.69-136.64,428.88-217.8,687.25-217.8q16.32,0,32.53.43c408.19,10.79,762.4,224.16,952.71,536.86C2654.91,870.25,2283,713.91,1870.64,713.91c-273.85,0-529.86,68.95-747.82,188.64q-29.63,16.26-58.31,33.78A1419.17,1419.17,0,0,1,1244.93,801.29Zm484.73,92.18s45.26,83.59,90,183.32l78.64-78,35.16,107.41,80.76-84.93-9.16-32.07,44.11-44.75,17.54,59.64-26.14,25.13,34.81,117.91,74.8-97.18,6.39-51.15,82.47-50.29s-79.81,138.69-106.67,319c0,0-203.3,78.64-433.45-74.8C1699,1192.67,1741.17,1035.41,1729.66,893.47ZM2893.59,3099.11C2649.84,3297.55,2338.8,3416.5,2000,3416.5c-725.6,0-1323.77-545.57-1406.68-1248.88A1433.63,1433.63,0,0,1,583.52,2000c0-215.34,48.07-419.46,134-602.22h0c-32.72,208.3-32.4,395.56-10.65,562.14,71.15-103.21,155-193,232.85-266.28,107.87-101.53,204.22-171.36,239.3-201.26,78-66.49,78-182.85,78-182.85,147-139.38,154.72-310.72,154.72-310.72,79.28,57.54,89.51,150.88,89.51,150.88,67.77-44.75,79.28-125.31,79.28-125.31,130.42,144.49,51.57,329,51.57,329s40.07-10.23,143.21-37.5,170.5,34.95,245.51,63.93,160.05,30,160.05,30c24.29,40.28,0,69,0,69,322.23-5.11,586.91-147,586.91-147s64.65,215.6-56.18,436.16c-71.87,131.2-160.73,208.12-220.92,248.91-41,27.76-68.69,38.78-68.69,38.78-150.55-11.53-267.68,7.28-357.89,39.23-208.09,73.69-272.86,217.29-273.85,219.52,60.9-72.32,159.17-105.09,160.7-105.59a498.92,498.92,0,0,0-93.59,291.7c0,276.83,224.41,501.24,501.24,501.24a501.83,501.83,0,0,0,121.09-14.73,1116.46,1116.46,0,0,0,150.26-65q24.34-12.72,48.05-26.57c372-217.55,625-646.05,625-1139.08,0-168.55-29.56-329.55-83.36-477.18,125,211.13,196.81,457.55,196.81,720.71C3416.48,2443.48,3212.67,2839.37,2893.59,3099.11Z"/></g></svg>