<?xml version="1.0" encoding="UTF-8" standalone="no"?>
<svg
   xmlns:dc="http://purl.org/dc/elements/1.1/"
   xmlns:cc="http://creativecommons.org/ns#"
   xmlns:rdf="http://www.w3.org/1999/02/22-rdf-syntax-ns#"
   xmlns:svg="http://www.w3.org/2000/svg"
   xmlns="http://www.w3.org/2000/svg"
   xmlns:sodipodi="http://sodipodi.sourceforge.net/DTD/sodipodi-0.dtd"
   xmlns:inkscape="http://www.inkscape.org/namespaces/inkscape"
   id="a"
   viewBox="0 0 1080 1080"
   version="1.1"
   sodipodi:docname="d3VvpYJpId7oUUMv.svg"
   width="1080"
   height="1080"
   inkscape:version="0.92.4 (5da689c313, 2019-01-14)">
  <metadata
     id="metadata13">
    <rdf:RDF>
      <cc:Work
         rdf:about="">
        <dc:format>image/svg+xml</dc:format>
        <dc:type
           rdf:resource="http://purl.org/dc/dcmitype/StillImage" />
        <dc:title></dc:title>
      </cc:Work>
    </rdf:RDF>
  </metadata>
  <sodipodi:namedview
     pagecolor="#ffffff"
     bordercolor="#666666"
     borderopacity="1"
     objecttolerance="10"
     gridtolerance="10"
     guidetolerance="10"
     inkscape:pageopacity="0"
     inkscape:pageshadow="2"
     inkscape:window-width="1920"
     inkscape:window-height="1017"
     id="namedview11"
     showgrid="false"
     inkscape:zoom="0.252999"
     inkscape:cx="178.3385"
     inkscape:cy="539.99998"
     inkscape:window-x="-8"
     inkscape:window-y="-8"
     inkscape:window-maximized="1"
     inkscape:current-layer="a"
     fit-margin-bottom="73.595"
     fit-margin-top="73.595"
     fit-margin-left="0"
     fit-margin-right="0" />
  <defs
     id="defs4">
    <style
       id="style2">.b{fill:#5c5df3;}</style>
  </defs>
  <path
     class="b"
     d="m 1039.51,1006.405 c 9.25,-11.2 40.49,-51.44 40.49,-110.86 0,-13.67 0.08,-65.79 -34.38,-103.39 -19.27,-21.06 -37.52,-21.73 -60.78,-52.46 -15.79,-20.8 -29.37,-59.34 -29.37,-59.34 v 0 c 0,0 -28.64,12.8 -57.72,40.75 -36.14,34.74 -115.34,66.67 -240.67,66.67 -23.09,0 -47.76,-1.09 -74.01,-3.44 q 3.69,5.24 22.47,31.56 c 17.89,25.07 42.49,44.74 71.15,56.02 14.06,5.53 31.5,11.38 53.09,17.11 v 0 c 2.14,0.57 4.39,1.14 6.62,1.7 1.77,0.45 3.56,0.9 5.38,1.35 2.21,0.54 4.43,1.08 6.72,1.62 2.7,0.64 5.49,1.27 8.31,1.89 2.91,0.65 5.89,1.3 8.93,1.94 2.74,0.58 5.52,1.16 8.37,1.73 2.14,0.43 4.31,0.86 6.52,1.28 3.5,0.68 7.1,1.34 10.76,2.01 1.93,0.35 3.84,0.7 5.82,1.05 4.62,0.81 9.38,1.6 14.25,2.39 2,0.32 4.05,0.64 6.1,0.96 4.27,0.66 8.64,1.31 13.1,1.96 1.67,0.24 3.29,0.48 4.99,0.72 6,0.84 12.19,1.65 18.54,2.45 1.71,0.21 3.48,0.42 5.22,0.63 5.23,0.63 10.59,1.26 16.06,1.86 1.84,0.2 3.67,0.41 5.54,0.61 7.03,0.75 14.21,1.47 21.63,2.16 1.19,0.11 2.43,0.22 3.63,0.32 6.5,0.59 13.17,1.16 19.97,1.7 2.04,0.16 4.08,0.32 6.14,0.48 8.08,0.62 16.3,1.21 24.81,1.76 54.74,3.51 82.35,84.8 82.35,84.8 z"
     id="path6"
     inkscape:connector-curvature="0"
     style="fill:#5c5df3" />
  <path
     class="b"
     d="m 724.67,914.005 c -21.09,-5.55 -40.23,-11.67 -57.3,-18.39 -32.95,-12.97 -61.49,-35.42 -82.55,-64.92 q -18.86,-26.43 -22.57,-31.69 l -31.63,-44.93 54.72,4.9 c 24.7,2.21 48.83,3.33 71.73,3.33 149.43,0 208.48,-45.59 223.02,-59.57 31.92,-30.68 63.65,-45.05 64.98,-45.64 l 13.14,-5.87 c 4.16,-47.37 9.24,-126 2.51,-171.21 C 950.7,412.355 874.56,316.275 776.35,273.405 639.36,213.575 545.9,77.835 543.01,73.595 l -1.36,2.21 c -93.37,160.43 -168.5,330.8 -224.01,507.87 -5.52,17.65 -10.95,35.23 -16.47,52.71 -0.59,-23.43 -0.08,-49.24 2.21,-76.99 3.06,-37.69 8.83,-71.56 15.53,-100.93 L 0,1006.405 l 709.81,-0.08 c 0,-18.93 -8.15,-32 -15.87,-40.07 18.38,-19.54 27.12,-41.07 30.73,-52.25 z m -5.95,-373.28 c 35.06,11.97 113.15,101.52 113.15,101.52 -31.92,9.76 -73.6,7.64 -110.01,-11.37 -36.42,-19.1 -3.14,-90.15 -3.14,-90.15 z"
     id="path8"
     inkscape:connector-curvature="0"
     style="fill:#5c5df3" />
</svg>
