<svg xmlns="http://www.w3.org/2000/svg" viewBox="0 0 566.93 566.93"><title>black</title><g id="Kreis"><circle id="Background" cx="283.46" cy="283.46" r="283.46" style="opacity:0.25"/><g id="Edge"><path d="M283.46,15A268.54,268.54,0,0,1,388,530.84,268.54,268.54,0,0,1,179,36.09,266.88,266.88,0,0,1,283.46,15m0-15C126.91,0,0,126.91,0,283.46S126.91,566.93,283.46,566.93,566.93,440,566.93,283.46,440,0,283.46,0Z" transform="translate(0 0)"/></g></g><g id="GC_Controller" data-name="GC Controller"><g id="Left_Stick" data-name="Left Stick"><path id="Stick_2" data-name="Stick 2" d="M168.48,110.49a42.22,42.22,0,1,0,42.22,42.22A42.27,42.27,0,0,0,168.48,110.49Zm0,67.37a25.15,25.15,0,1,1,25.15-25.15A25.17,25.17,0,0,1,168.48,177.86Z" transform="translate(0 0)" style="fill:#999"/><path id="Stick_1" data-name="Stick 1" d="M168.48,131.3a21.42,21.42,0,1,0,21.41,21.41A21.43,21.43,0,0,0,168.48,131.3Z" transform="translate(0 0)" style="fill:#ccc"/></g><path id="D_Pad" data-name="D Pad" d="M227.87,211a1.65,1.65,0,0,0-1.65-1.65H213.65A1.65,1.65,0,0,0,212,211V228.3H194.71a1.65,1.65,0,0,0-1.65,1.65v12.57a1.66,1.66,0,0,0,1.65,1.66H212v17.28a1.66,1.66,0,0,0,1.66,1.65h12.57a1.65,1.65,0,0,0,1.65-1.65V244.18h17.28a1.67,1.67,0,0,0,1.66-1.66V230a1.66,1.66,0,0,0-1.66-1.66H227.87Z" transform="translate(0 0)" style="fill:#ccc"/><circle id="Start" cx="283.47" cy="151.09" r="8.36" style="fill:#ccc"/><path id="A" d="M397.4,135.18a20.71,20.71,0,1,0,20.7,20.71A20.73,20.73,0,0,0,397.4,135.18Z" transform="translate(0 0)" style="fill:#00aa84"/><g id="C_Stick" data-name="C Stick"><path id="C_Stick_2" data-name="C Stick 2" d="M345.94,221.43a15,15,0,1,0,15,15A15,15,0,0,0,345.94,221.43Z" transform="translate(0 0)" style="fill:#ffe70e"/><path id="C_Stick_1" data-name="C Stick 1" d="M349.57,209.54l-19.92,4.91-10.95,17,4.95,21.17L342,263.36l20.58-5.23,10.62-19-5.81-19.37Zm-3.63,45.67a18.76,18.76,0,1,1,18.76-18.76A18.77,18.77,0,0,1,345.94,255.21Z" transform="translate(0 0)" style="fill:#ffe70e"/></g><path id="B" d="M359.35,163a14,14,0,0,0-4-.86c-.35,0-.68-.1-1-.1a14.07,14.07,0,1,0,13.4,17.81,13.73,13.73,0,0,0,.6-3.81A14,14,0,0,0,359.35,163Z" transform="translate(0 0)" style="fill:#e40422"/><path id="Y" d="M366.77,125.44a9.81,9.81,0,0,0,3,2.22,9.37,9.37,0,0,0,6.42.64,22.66,22.66,0,0,0,2.21-1.15,40.28,40.28,0,0,1,8.79-3.91A52.28,52.28,0,0,1,399.18,122h.34a9.41,9.41,0,0,0,5.52-4.37c0-.06.06-.13.1-.2a9.64,9.64,0,0,0,.84-7,9.45,9.45,0,0,0-9.31-7,10.75,10.75,0,0,0-2.39.27l-.49.12c-10.39,2.43-10.39,2.43-21.72,5.85l-.73.22a9.53,9.53,0,0,0-6.75,11.65A9.17,9.17,0,0,0,366.77,125.44Z" transform="translate(0 0)" style="fill:#ccc"/><path id="X" d="M449.77,154.79c-2.42-10.35-2.42-10.35-5.87-21.75l-.18-.62a9.63,9.63,0,0,0-11.66-6.75,9.46,9.46,0,0,0-3.41,1.72,9.73,9.73,0,0,0-2.42,2.89,9.51,9.51,0,0,0-.86,7,24.41,24.41,0,0,0,1.14,2.21,40.75,40.75,0,0,1,3.92,8.79,54.18,54.18,0,0,1,1.23,12.29,9.23,9.23,0,0,0,2.25,3.76,9.7,9.7,0,0,0,3.28,2.23,9.34,9.34,0,0,0,6,.47,9.65,9.65,0,0,0,6.68-11.7Z" transform="translate(0 0)" style="fill:#ccc"/><g id="Case"><path id="Case_1" data-name="Case 1" d="M430.61,97.82S425,68.6,383.44,77.05c0,0-23.92-13-87.2-15.21,3.1-15.78,22.69-12.25,33.5-19.94a31.56,31.56,0,0,0,12.68-22.14A6.12,6.12,0,0,0,336.29,13h-8.71c.65,7.22-1.58,13.29-7.66,17.62s-14.88,2.6-21.47,6.18c-9.91,5.39-15.38,14-17.13,24.77-71.24,1-97.83,15.46-97.83,15.46C142,68.6,136.32,97.82,136.32,97.82,95.13,125.27,107.1,176,107.1,176c-4.22,51.39-5.81,146,28.52,146s34.14-88.66,34.14-88.66a135.13,135.13,0,0,1,10.56,22.89c4.57,13,38.73,48.57,75.68,9.5s-14.08-78.15-14.08-78.15v-6.21c12.32-3.4,41.54-4,41.54-4s29.22.6,41.54,4v6.21S274,226.65,310.92,265.73s71.11,3.52,75.68-9.5a135.6,135.6,0,0,1,10.57-22.89S397,322,431.31,322s32.74-94.64,28.51-146C459.83,176,471.8,125.27,430.61,97.82ZM172.68,198.48a46,46,0,1,1,41.57-41.57A46,46,0,0,1,172.68,198.48ZM245,224.63a5.42,5.42,0,0,1,5.5,5.33v12.49a5.39,5.39,0,0,1-5.4,5.39H231.54v13.54a5.4,5.4,0,0,1-5.39,5.4H213.72a5.39,5.39,0,0,1-5.39-5.4V247.84H194.79a5.39,5.39,0,0,1-5.4-5.39V230a5.4,5.4,0,0,1,5.4-5.4h13.54V211.09a5.39,5.39,0,0,1,5.39-5.4h12.43a5.4,5.4,0,0,1,5.39,5.4v13.54Zm40.08-61.55a12.1,12.1,0,1,1,10.41-10.41A12.11,12.11,0,0,1,285.06,163.08Zm91.75,77.21-11.4,20.36a1.83,1.83,0,0,1-1.17.9l-22.1,5.62a1.76,1.76,0,0,1-.46.06,1.87,1.87,0,0,1-.94-.25l-19.67-11.53a1.87,1.87,0,0,1-.88-1.19l-5.31-22.72a1.92,1.92,0,0,1,.25-1.44l11.78-18.29A1.91,1.91,0,0,1,328,211l21.37-5.27a1.89,1.89,0,0,1,1.38.19l19.08,11a1.87,1.87,0,0,1,.85,1.08L377,238.84A1.88,1.88,0,0,1,376.81,240.29Zm67.38-69.63a12.87,12.87,0,0,1-8.24-.48,41.95,41.95,0,0,1-67.11,16,17.73,17.73,0,1,1-14.47-27.93c.18,0,.35.05.54.06-.1-1.15-.18-2.3-.18-3.48a41.82,41.82,0,0,1,9.49-26.56,13.21,13.21,0,0,1,6.09-21.93l.68-.2c11.45-3.45,11.45-3.45,21.95-5.92l.49-.11a14.14,14.14,0,0,1,3.24-.38,13.15,13.15,0,0,1,13.22,15.13,42.07,42.07,0,0,1,16.22,9.83,13,13,0,0,1,8.43-3.08,13.24,13.24,0,0,1,12.77,9.79l.17.57c3.48,11.51,3.48,11.51,5.93,22l.14.57A13.37,13.37,0,0,1,444.19,170.66Z" transform="translate(0 0)"/><path id="Case_2" data-name="Case 2" d="M428,161.27a2.18,2.18,0,0,1-.06-.52c0-.07.12-7-1.1-11.53a37.81,37.81,0,0,0-3.58-8,16.29,16.29,0,0,1-1.47-3,13.14,13.14,0,0,1,1.86-10.81,38.43,38.43,0,0,0-14.85-9c-.17.36-.29.73-.49,1.07a13.12,13.12,0,0,1-8,6.18,2.24,2.24,0,0,1-.52.06h-.56a49.83,49.83,0,0,0-11,1.1,37.49,37.49,0,0,0-7.95,3.58,16.5,16.5,0,0,1-3.05,1.48,13.46,13.46,0,0,1-3.45.46,13.18,13.18,0,0,1-6.59-1.8,38.28,38.28,0,0,0-8.48,28.29,17.66,17.66,0,0,1,12,24,38.23,38.23,0,0,0,61.93-14.52A13.19,13.19,0,0,1,428,161.27ZM397.4,180.33a24.45,24.45,0,1,1,24.44-24.44A24.47,24.47,0,0,1,397.4,180.33Z" transform="translate(0 0)"/></g></g><g id="Font"><g id="Shadow"><path d="M143.8,338.89l5.66.3a35.15,35.15,0,0,1,8,1.42,26.67,26.67,0,0,1,9.85,5.25q4.49,3.74,5.1,11.41v.35a.79.79,0,0,0,.1.36v.7A14,14,0,0,1,168.14,369q-4.33,4.29-11.61,4.9a.17.17,0,0,1,.15.05.21.21,0,0,0,.15.05,35.35,35.35,0,0,1,11.82,5.85q5.35,4,5.35,12.33,0,10.69-7.62,15.25T143.8,412H111.18V338.89Zm-1.61,28.58c3.16.07,5.42-.5,6.76-1.72a6.81,6.81,0,0,0,2-5.35,6.62,6.62,0,0,0-2.32-5,9.24,9.24,0,0,0-6.46-2.12l-10.3-.1v14.34Zm.81,30.2q4.55.1,6.66-1.67a7.28,7.28,0,0,0,2.63-3.88c.06-.27.11-.53.15-.76a6.06,6.06,0,0,0,.05-.76,9.4,9.4,0,0,0-.1-1.26A5.57,5.57,0,0,0,152,388a8.76,8.76,0,0,0-2.67-3.58,8.28,8.28,0,0,0-5.51-1.67l-11.91-.1v15.05Z" transform="translate(0 0)"/><path d="M233.9,338.89v15.05H199v14.34h32.62v15.15H199v14.24h35V412H178.24V338.89Z" transform="translate(0 0)"/><path d="M271.57,338.89a4.61,4.61,0,0,0,1,.1h1a49.39,49.39,0,0,1,18.88,3.94q8.6,3.74,8.59,15.15,0,8.88-5.15,13a26.65,26.65,0,0,1-12.33,5.3q10.81.4,13.39,7.27a59.54,59.54,0,0,1,3.38,14.95v.4a1,1,0,0,0,.1.41c.2,2.22.46,4.43.76,6.61a28.58,28.58,0,0,0,1.46,6H280.35a14.33,14.33,0,0,1-1.06-4.44c-.16-1.75-.32-3.57-.45-5.46,0-.4,0-.79,0-1.16a10.78,10.78,0,0,1-.05-1.16,43.53,43.53,0,0,0-2-10.7q-1.62-4.86-7.58-4.85l-9.49-.1V412H238.94V338.89Zm-11.92,31h8a5.5,5.5,0,0,0,1,.1h1a17.94,17.94,0,0,0,6.87-1.72c2.08-1,3.13-3.1,3.13-6.26a6.53,6.53,0,0,0-3.24-6.06,15.35,15.35,0,0,0-8-1.92l-8.69-.1Z" transform="translate(0 0)"/><path d="M327.52,338.89v58h32.62V412H306.82V338.89Z" transform="translate(0 0)"/><path d="M383.47,338.89V412h-20.7V338.89Z" transform="translate(0 0)"/><path d="M418.72,338.89l24.75,54v-54h18.28V412H433.07l-24.65-54.84V412H390.14V338.89Z" transform="translate(0 0)"/><path d="M154.71,414.89l11.11,48.48,11.11-48.48h31.82V488H191.27v-61.2L174.61,488H155.52l-16-61.2V488H122.09V414.89Z" transform="translate(0 0)"/><path d="M272.68,414.89v15.05h-35v14.34h32.63v15.15H237.73v14.24h35V488H217V414.89Z" transform="translate(0 0)"/><path d="M299.24,414.89v58h32.63V488H278.54V414.89Z" transform="translate(0 0)"/><path d="M390.14,414.89v15.05H355.2v14.34h32.62v15.15H355.2v14.24h34.94V488H334.49V414.89Z" transform="translate(0 0)"/><path d="M451.65,414.89v15.05H416.7v14.34h32.63v15.15H416.7v14.24h34.95V488H396V414.89Z" transform="translate(0 0)"/></g><g id="Text"><path d="M137.8,331.89l5.66.3a35.15,35.15,0,0,1,8,1.42,26.67,26.67,0,0,1,9.85,5.25q4.49,3.74,5.1,11.41v.35a.79.79,0,0,0,.1.36v.7A14,14,0,0,1,162.14,362q-4.33,4.29-11.61,4.9a.17.17,0,0,1,.15.05.21.21,0,0,0,.15.05,35.35,35.35,0,0,1,11.82,5.85q5.35,4,5.35,12.33,0,10.69-7.62,15.25T137.8,405H105.18V331.89Zm-1.61,28.58c3.16.07,5.42-.5,6.76-1.72a6.81,6.81,0,0,0,2-5.35,6.62,6.62,0,0,0-2.32-5,9.24,9.24,0,0,0-6.46-2.12l-10.3-.1v14.34Zm.81,30.2q4.55.1,6.66-1.67a7.28,7.28,0,0,0,2.63-3.88c.06-.27.11-.53.15-.76a6.06,6.06,0,0,0,.05-.76,9.4,9.4,0,0,0-.1-1.26A5.57,5.57,0,0,0,146,381a8.76,8.76,0,0,0-2.67-3.58,8.28,8.28,0,0,0-5.51-1.67l-11.91-.1v15.05Z" transform="translate(0 0)" style="fill:#e40422"/><path d="M227.9,331.89v15.05H193v14.34h32.62v15.15H193v14.24h35V405H172.24V331.89Z" transform="translate(0 0)" style="fill:#e40422"/><path d="M265.57,331.89a4.61,4.61,0,0,0,1,.1h1a49.39,49.39,0,0,1,18.88,3.94q8.6,3.74,8.59,15.15,0,8.88-5.15,13a26.65,26.65,0,0,1-12.33,5.3q10.81.4,13.39,7.27a59.54,59.54,0,0,1,3.38,14.95v.4a1,1,0,0,0,.1.41c.2,2.22.46,4.43.76,6.61a28.58,28.58,0,0,0,1.46,6H274.35a14.33,14.33,0,0,1-1.06-4.44c-.16-1.75-.32-3.57-.45-5.46,0-.4,0-.79,0-1.16a10.78,10.78,0,0,1-.05-1.16,43.53,43.53,0,0,0-2-10.7q-1.62-4.86-7.58-4.85l-9.49-.1V405H232.94V331.89Zm-11.92,31h8a5.5,5.5,0,0,0,1,.1h1a17.94,17.94,0,0,0,6.87-1.72c2.08-1,3.13-3.1,3.13-6.26a6.53,6.53,0,0,0-3.24-6.06,15.35,15.35,0,0,0-8-1.92l-8.69-.1Z" transform="translate(0 0)" style="fill:#e40422"/><path d="M321.52,331.89v58h32.62V405H300.82V331.89Z" transform="translate(0 0)" style="fill:#e40422"/><path d="M377.47,331.89V405h-20.7V331.89Z" transform="translate(0 0)" style="fill:#e40422"/><path d="M412.72,331.89l24.75,54v-54h18.28V405H427.07l-24.65-54.84V405H384.14V331.89Z" transform="translate(0 0)" style="fill:#e40422"/><path d="M148.71,407.89l11.11,48.48,11.11-48.48h31.82V481H185.27v-61.2L168.61,481H149.52l-16-61.2V481H116.09V407.89Z" transform="translate(0 0)" style="fill:#e40422"/><path d="M266.68,407.89v15.05h-35v14.34h32.63v15.15H231.73v14.24h35V481H211V407.89Z" transform="translate(0 0)" style="fill:#e40422"/><path d="M293.24,407.89v58h32.63V481H272.54V407.89Z" transform="translate(0 0)" style="fill:#e40422"/><path d="M384.14,407.89v15.05H349.2v14.34h32.62v15.15H349.2v14.24h34.94V481H328.49V407.89Z" transform="translate(0 0)" style="fill:#e40422"/><path d="M445.65,407.89v15.05H410.7v14.34h32.63v15.15H410.7v14.24h34.95V481H390V407.89Z" transform="translate(0 0)" style="fill:#e40422"/></g></g></svg>