<?xml version="1.0" encoding="UTF-8" standalone="no"?>
<svg
   xmlns:dc="http://purl.org/dc/elements/1.1/"
   xmlns:cc="http://creativecommons.org/ns#"
   xmlns:rdf="http://www.w3.org/1999/02/22-rdf-syntax-ns#"
   xmlns:svg="http://www.w3.org/2000/svg"
   xmlns="http://www.w3.org/2000/svg"
   xmlns:sodipodi="http://sodipodi.sourceforge.net/DTD/sodipodi-0.dtd"
   xmlns:inkscape="http://www.inkscape.org/namespaces/inkscape"
   id="Ebene_2"
   data-name="Ebene 2"
   viewBox="0 0 519.41999 519.41999"
   version="1.1"
   sodipodi:docname="sf6Koc8g9BQ0dfal.svg"
   inkscape:version="0.92.4 (5da689c313, 2019-01-14)"
   width="519.41998"
   height="519.41998">
  <metadata
     id="metadata19">
    <rdf:RDF>
      <cc:Work
         rdf:about="">
        <dc:format>image/svg+xml</dc:format>
        <dc:type
           rdf:resource="http://purl.org/dc/dcmitype/StillImage" />
        <dc:title>zerf</dc:title>
      </cc:Work>
    </rdf:RDF>
  </metadata>
  <defs
     id="defs17" />
  <sodipodi:namedview
     pagecolor="#ffffff"
     bordercolor="#666666"
     borderopacity="1"
     objecttolerance="10"
     gridtolerance="10"
     guidetolerance="10"
     inkscape:pageopacity="0"
     inkscape:pageshadow="2"
     inkscape:window-width="1920"
     inkscape:window-height="1017"
     id="namedview15"
     showgrid="false"
     inkscape:pagecheckerboard="true"
     inkscape:zoom="1"
     inkscape:cx="-14.936397"
     inkscape:cy="144.02111"
     inkscape:window-x="-8"
     inkscape:window-y="-8"
     inkscape:window-maximized="1"
     inkscape:current-layer="Ebene_2"
     fit-margin-left="61.244995"
     fit-margin-right="61.244995"
     fit-margin-top="0"
     fit-margin-bottom="0" />
  <title
     id="title2">zerf</title>
  <polygon
     points="219,234 192,247 176,186 152,191 181,269 201,262 223,325 "
     style="fill:#080b36;fill-opacity:1"
     id="polygon4"
     transform="translate(61.244995)" />
  <polygon
     points="199.47,112 154.47,140 169.47,88 126.47,57 179.47,55 199.47,0 216.47,54 270.46,55 228.47,88 243.47,140 "
     style="display:inline;fill:#323035"
     id="polygon6"
     transform="translate(61.244995)" />
  <path
     d="m 331.175,276 c -0.53,1.29 -0.3,2.1 0,5 v 40 c 8.82999,0.26 16,0.15 21,0 11.45,-0.35 15.27999,-1 22,0 9,1.4 13.56,5.12 18,6 10.07,2 25.39999,1.22 47,-13 l 10,-2 a 29.18,29.18 0 0 0 9,-18 q -2.51,-7.5 -5,-15 a 110.91,110.91 0 0 0 -5,-12 c -5.55,-11.36 -11.3,-18.14 -20,-29 -4.86001,-6.07 -12.12,-15.25 -21,-27 a 75.36,75.36 0 0 0 -28,-22 69.78,69.78 0 0 0 -8,-3 l -13,22 a 17.75,17.75 0 0 1 3,10 h 33 l 4,6 5,8 4,17 5,20 a 7.78,7.78 0 0 1 1,6 7.25,7.25 0 0 1 -5,5 c -5.58,1.27 -8.38,-8.05 -15,-8 -6.33,0.05 -8.19,8.59 -14,8 -4.15,-0.42 -4.56,-4.92 -11,-8 -3.27,-1.56 -5.94,-1.73 -11,-2 -5.78,-0.3 -23.02,-1.21 -26,6 z"
     style="display:inline;fill:#323035"
     id="path8"
     inkscape:connector-curvature="0" />
  <path
     d="m 188.245,276 c 0.52999,1.29 0.3,2.1 0,5 v 40 c -8.83001,0.26 -16,0.15 -21,0 -11.45,-0.35 -15.28001,-1 -22,0 -9,1.4 -13.56,5.12 -18,6 -10.07,2 -25.40001,1.22 -47.000005,-13 l -10,-2 a 29.18,29.18 0 0 1 -9,-18 l 5,-15 a 108.89,108.89 0 0 1 5,-12 c 5.55,-11.36 11.3,-18.14 20,-29 4.86,-6.07 12.120005,-15.25 21.000005,-27 a 75.36,75.36 0 0 1 28,-22 69.78,69.78 0 0 1 8,-3 l 13,22 a 17.75,17.75 0 0 0 -3,10 h -33 l -4,6 -5,8 -4,17 -5,20 a 7.78,7.78 0 0 0 -1,6 7.25,7.25 0 0 0 5,5 c 5.58,1.27 8.38,-8.05 15,-8 6.32999,0.05 8.19,8.59 14,8 4.14999,-0.42 4.56,-4.92 11,-8 3.26999,-1.56 5.94,-1.73 11,-2 5.77999,-0.3 23,-1.21 26,6 z"
     style="display:inline;fill:#323035"
     id="path10"
     inkscape:connector-curvature="0" />
  <path
     d="m 304.595,376.75 h -0.05 c 0.23,1.37 2.16,2.15 2.81,3.4 a 39.53,39.53 0 0 1 3.37,4.2 c 0.94,1.38 1.93,2.73 2.2,3 0.26999,0.27 1.06,1.22 1.75,2.07 a 68.22,68.22 0 0 0 7.54,7.39 c 0.95,0.78 2.09,1.74 2.54,2.13 1.2,1 1.72,1 1.15,-0.16 a 21,21 0 0 1 -0.81,-2.44 24.4,24.4 0 0 0 -0.79,-2.38 21.75,21.75 0 0 0 -2.4,-5.21 13.85,13.85 0 0 0 -2,-3 15.61,15.61 0 0 0 -3.79,-3.65 40.93,40.93 0 0 0 -10.2,-4.94 4.76,4.76 0 0 0 -1.3,-0.41 z m -91.71,1.08 c -2.31,0.09 -4.51,1.89 -6.63,2.66 a 21.21,21.21 0 0 0 -6.76,4.66 c -1.8,1.8 -4.64,6.16 -4.93,7.58 a 53.22,53.22 0 0 1 -1.57,5.36 c -0.22,0.61 -0.5,1.42 -0.61,1.81 -0.28,1 0.18,0.88 1.76,-0.57 0.76,-0.7 1.89,-1.65 2.5,-2.12 0.61,-0.47 1.39,-1.12 1.75,-1.47 0.36,-0.35 1.35,-1.3 2.22,-2.1 a 27.22,27.22 0 0 0 3,-3.42 c 0.77,-1.08 2.23,-3.08 3.22,-4.45 a 32,32 0 0 1 4.18,-5.18 21.92,21.92 0 0 0 2.36,-2.75 3.53,3.53 0 0 0 -0.46,0 z m 108.14,7 1.38,1.52 c 0.76,0.84 1.47,1.59 1.58,1.68 a 16.42,16.42 0 0 1 2.64999,6.61 c 0.25,0.78 0.69,2.34 1,3.47 0.31,1.13 0.78,3 1.10001,4.1 1,3.36 1,3.47 0.76999,3.47 a 5.45,5.45 0 0 1 -1.19999,-1.15 c -2.05001,-2.35 -2.61001,-2.84 -6.36001,-5.45 -1.20999,-0.85 -2.47,-1.77 -2.77999,-2.06 a 11.47,11.47 0 0 0 -1.58,-1.12 c -1,-0.63 -1.67,-1.32 -3.53,-3.93 l -1.13,-1.58 0.22,1.58 a 19,19 0 0 0 2.12,6.14 c 1,2.09 4.87,6.33 7.63,8.37 4.93,3.65 9.38,8 10.39,10.1 0.29,0.62 0.61,1.06 0.69,1 0.08,-0.06 0.13,-4.23 0.12,-9.23 0,-9.61 -0.18,-10.78 -1.77,-14 -2.11,-4.24 -6.87,-8.52 -10.36,-9.29 l -0.92,-0.21 z m -124.78,1.3 c -1.09,0.05 -4.16,1.82 -6,3.61 -3.44,3.4 -4.71,5.63 -5.42,9.49 a 27.83,27.83 0 0 0 -0.39,10.21 49.92,49.92 0 0 1 0.29,6.7 c -0.11,1.55 -0.05,2.44 0.16,2.44 0.21,0 0.41,-0.25 0.52,-0.55 0.75,-2 4.29,-6 7.57,-8.41 5.48,-4.07 9.56,-8.91 11.29,-13.42 1.1,-2.85 1.32,-4.17 0.68,-4 a 2.31,2.31 0 0 0 -1,1 c -0.73,1.3 -2.83,3.24 -6.37,5.92 -3.27,2.64 -6.89,4.9 -9,8.7 -0.92,2.21 -0.7,0.69 0.32,-2.18 a 52.51,52.51 0 0 0 1.6,-5.51 63.75,63.75 0 0 1 2,-7.72 c 0.69999,-1.95 2.4,-4.59 3.37,-5.22 0.44,-0.29 0.81,-0.66 0.81,-0.81 0,-0.15 -0.15,-0.27 -0.4,-0.26 z m 138.53,10 c -0.39,0.07 -0.25,0.66 0.42,1.73 a 14.34,14.34 0 0 1 0.94,2.52 c 0.47,1.64 0.5,2.59 0.27,7.25 -0.14,2.95 -0.27,8.39 -0.28,12.1 0,4.2 -0.11,6.33 -0.27,5.67 a 14.41,14.41 0 0 0 -2.39,-5.75 28.2,28.2 0 0 0 -3.94,-4.41 73.17,73.17 0 0 1 -7.87,-7.87 c -0.32,-0.5 -0.69,-0.78 -0.84,-0.63 -0.15,0.15 0.53,3.62 1.27,5.31 a 25.79,25.79 0 0 0 3.15,6.59 c 2.34,3.69 5.29,7 7.57,10.69 a 29.15,29.15 0 0 1 3.34,7.06 7,7 0 0 0 0.77,2 c 1.89999,-4 2.27999,-9.16 3.89999,-13.08 2.31001,-5.28 1.84,-16.12 -0.93999,-21.59 a 25.81,25.81 0 0 0 -5,-7.56 z m -151.25,1.45 c -0.42,0.09 -1.75,1.62 -2.85,3.54 a 68.06,68.06 0 0 0 -3.1,6.15 14.89,14.89 0 0 1 -0.46,1.84 c -1,5.8 -1.06,12 1.22,17.5 0.35,1 1.07,3.09 1.61,4.57 0.54,1.48 1.05,3 1.13,3.46 a 20.84,20.84 0 0 0 0.61,2.52 c 0,0.09 0.17,0.64 0.3,1.23 l 0.25,1.05 0.37,-0.9 c 0.21,-0.49 0.55,-1.58 0.78,-2.4 a 34.43,34.43 0 0 1 4.62,-8.26 c 1.37,-2 2.68,-4 2.91,-4.46 a 35.5,35.5 0 0 0 3.84,-5.92 15.49,15.49 0 0 1 0.9,-2.2 c 1.54,-3.29 2.43,-7.13 1.66,-7.13 a 7.31,7.31 0 0 0 -1.59,1.73 8.22,8.22 0 0 1 -1.54,1.73 c -5.11,3.85 -10,9.12 -11.25,15.56 -0.41,2.46 -0.48,0.81 -0.12,-2.95 0.36,-3.76 0.2,-7 -0.71,-13.48 -0.67,-4.76 -0.25,-9.17 1.16,-12 0.44,-0.88 0.48,-1.23 0.26,-1.18 z m 161,21.68 c -0.15,0 -0.23,0.83 -0.34,3.09 a 39.84,39.84 0 0 1 -3.29,12.51 49.71,49.71 0 0 0 -4.19,12 c -0.29,2 -0.56,1.24 -0.64,-1.77 a 12.72,12.72 0 0 0 -1.52,-6.45 23.06,23.06 0 0 0 -2.15,-4.41 63.78,63.78 0 0 1 -4.74,-8.25 9.68,9.68 0 0 1 -0.79,-2 c 0,-0.69 -0.56,-0.43 -0.76,0.36 -0.35,1.39 0.28,6.1 1.58,11.85 0.78,3.46 2.54,9.69 3.56,12.61 a 21.59,21.59 0 0 1 1.09,8.74 c -0.23,3.46 0,4 1.05,2.37 0.31,-0.48 2.5,-3.43 4.87,-6.57 a 86.51,86.51 0 0 0 5,-7.09 c 3.92,-8 4.56,-19.79 1.47,-26.77 -0.07,-0.16 -0.13,-0.25 -0.18,-0.25 z m -170.18,1.37 c -0.68,0.68 -1.93,7.61 -1.93,10.68 a 40.35,40.35 0 0 0 1.14,9.3 36.36,36.36 0 0 0 9,15.85 40.08,40.08 0 0 1 3.11,4.29 c 1.18,2.27 1.40999,1.75 1.40999,-3.33 a 25.17,25.17 0 0 1 1.57,-9.54 l 0.95,-3.31 c 0.25,-0.87 0.68,-2.43 0.95,-3.47 0.27,-1.04 0.71,-2.61 1,-3.49 0.5,-2 0.43,-4 0.91,-6 0.48,-2 0.66,-7.72 0.22,-7.72 -2.36,2.61 -7.51,15 -8,15.91 a 16.57,16.57 0 0 0 -1.34,8 c 0.15,3.63 -0.23,4 -0.74,0.68 a 30.87,30.87 0 0 0 -3,-9.92 9.71,9.71 0 0 1 -0.81,-1.79 15.86,15.86 0 0 0 -0.94,-2.27 17.67,17.67 0 0 1 -1,-2.23 6,6 0 0 0 -0.44,-1.23 19.75,19.75 0 0 1 -1.67,-7.38 11.2,11.2 0 0 0 -0.37,-3.06 z m 153.1,21.9 c -1.32,2.31 -1.68,5.3 -2.5,7.81 -0.46,2.31 -1.6,12.76 -1.6,14.65 0,3.21 -1.84,12 -2.91,13.95 -0.93001,1.65 -1.14,2.18 -1,2.42 3.38999,-1.95 6.69999,-4.17 9.88999,-6.36 1,-0.55 1.84,-1.34 2.84,-1.89 a 8.11,8.11 0 0 1 1.36,-0.95 c 5.27,-4.17 9.79,-9.31 12,-15.76 1.27,-3.82 1.94,-10.08 1.27,-11.82 -0.28,-0.71 -0.74,0 -0.74,1.14 a 17.3,17.3 0 0 1 -2.21,5.64 c -0.09,0.08 -0.58,0.78 -1.1,1.55 a 60.75,60.75 0 0 1 -4.45,5 c -1.93,2 -4,4.28 -4.69,5.06 a 23.83,23.83 0 0 0 -3.09,4.05 c -0.75,1 -2,2.81 -2.08999,3 -1,1.32 -1.57,2.14 -1.63,2.18 -0.06,0.04 0.39,-0.77 1.1,-2.22 a 20.61,20.61 0 0 0 1.78,-6.39 c 0.39999,-2.83 0.22,-5.18 -0.8,-10.21 a 42.6,42.6 0 0 1 -1.10001,-8.63 c 0,-1.29 -0.14,-2.25 -0.32,-2.25 z m -135.54,2.29 c -0.19,0 -0.3,0.33 -0.3,1.07 a 67.15,67.15 0 0 1 -1.62,9.25 36.49,36.49 0 0 0 -0.39,6.46 c 0,3.31 0.06,6.74 1.9,9.62 0.46,0.7 0.75,1.35 0.66,1.44 -1.53,-1.35 -2.16,-3.37 -3.53,-4.86 a 40.28,40.28 0 0 0 -2.84,-3.47 c -2.22,-2.45 -7.26,-7.77 -8.29,-8.78 a 2.91,2.91 0 0 1 -0.71,-0.9 6.11,6.11 0 0 0 -0.89,-1.35 16.39,16.39 0 0 1 -2.74,-5.92 4.56,4.56 0 0 0 -0.44,-1.6 c -0.52,-0.89 -0.43,5.58 0.12,8.57 a 21.33,21.33 0 0 0 2.75,7.66 29,29 0 0 0 6.72,8.29 8.68,8.68 0 0 1 1.73,1.62 c 3.28,2.29 6.6,4.72 9.88,6.87 a 19.77,19.77 0 0 1 3,1.86 c 3.59,2.47 3.61,2.46 2.41,-0.11 -0.42,-0.88 -1,-2.1 -1.23,-2.71 -0.94,-2.16 -1.94,-7.71 -2.29,-12.6 -0.5,-7.06 -1.77,-15.11 -2.93,-18.58 -0.4,-1.18 -0.76,-1.81 -1,-1.83 z m 129.55,15.9 h -0.1 c -0.25,0.07 -0.61,0.47 -1.11,1.25 a 27.85,27.85 0 0 1 -1.77,2.43 43.07,43.07 0 0 0 -5.21,9.32 2.26,2.26 0 0 1 -0.32,0.88 c -0.17,0.3 -0.87,2.25 -1.56,4.33 -1.51,4.54 -2.12,6.29 -2.49,7 -0.16,0.3 -0.59,1.18 -1,2 a 22.52,22.52 0 0 1 -4.35,6.24 7.28,7.28 0 0 0 -1,1.19 c 0,0.25 1.29,0.15 1.86,-0.16 a 40,40 0 0 1 7,-1.6 36.67,36.67 0 0 0 10.06,-2.6 c 2.75,-1 8.16,-4.77 11.18,-7.71 a 31.83,31.83 0 0 0 6.44,-8.95 c 0.92,-2 2.32,-6.62 2.07,-6.87 -0.06,-0.06 -0.4,0.43 -0.76,1.09 a 15.72,15.72 0 0 1 -3.18,4.3 29.89,29.89 0 0 1 -5.67,4.75 14,14 0 0 0 -1.42,0.81 c -0.52,0.33 -2,1.12 -3.31001,1.76 -1.31,0.64 -2.56999,1.27 -2.82999,1.43 -0.26,0.16 -1.24,0.65 -2.16001,1.1 a 54,54 0 0 0 -9.37,6.29 6.64,6.64 0 0 1 -1.32,1.11 c -0.17,0 0.87,-1.28 1.68,-2 a 25.42,25.42 0 0 0 5.60001,-11.2 c 0.27,-1.3 0.72,-3.86 1,-5.68 a 44.91,44.91 0 0 1 2,-8.91 c 0.33999,-0.81 0.39,-1.3 0.17,-1.52 a 0.24,0.24 0 0 0 -0.1,-0.06 z m -123.76,1 c -0.78,0 1.27,4.42 1.17,5.51 1.06,4.83 1.25,5.87 1.25,6.81 0,2.18 2.19999,9.42 3.15,10.37 a 12.38,12.38 0 0 0 3.86,4.86 l 2.29,2.19 -1.94,-1.31 a 23.52,23.52 0 0 1 -2.42,-1.79 c -3,-1.81 -5.74,-4.2 -9.06,-5.55 -10,-4.62 -13.88,-7.51 -17.09,-12.83 -0.79,-1.3 -0.87,-1.37 -0.71,-0.54 0.1,0.52 0.26,1.37 0.36,1.88 a 32.16,32.16 0 0 0 9,13.72 l 2.3,2 a 31.31,31.31 0 0 0 14.54,6.52 l 5.52,0.95 c 0.63,0.11 7.69,2.07 6.91,0.92 -0.91,0 -4,-4.18 -5.67,-7.56 -0.38,-0.78 -0.81,-1.66 -1,-2 -0.35,-0.69 -0.92,-2.27 -2.5,-7 -1.7,-5 -4,-9.73 -6,-12.36 l -1.81,-2.32 a 13.21,13.21 0 0 1 -1.6,-2.19 c -0.25,-0.19 -0.41,-0.28 -0.53,-0.27 z m 112,17.15 c -0.51,0 -3,1.82 -4.71,3.43 -0.95,0.9 -2.27,2.09 -2.94,2.63 -0.67,0.54 -3.31,3.07 -5.89,5.6 -4.3,4.19 -8.91,7.84 -15.13,8.7 a 1.38,1.38 0 0 0 -1,0.28 c -0.23,0.37 0.57,0.66 1.75,0.66 a 38.28,38.28 0 0 1 6.42,1.33 c 0.7,0.19 1.83,0.46 2.53,0.59 l 4.25,0.88 c 5.82,1.21 11.94,1.71 17.65,-0.33 a 29,29 0 0 0 12.75,-8.81 c 1.12,-1.18 3.26,-4.83 2.72,-4.64 a 17.12,17.12 0 0 0 -2,1.68 11.38,11.38 0 0 1 -3.64,2.67 c -0.39,0.17 -1.31,0.6 -2.05,1 -2.08,1 -6.17,1.78 -12.37,2.35 -5,0.48 -10.06,1.37 -15.05,1.7 a 23.69,23.69 0 0 0 7.6,-3.88 33,33 0 0 0 4.81,-7.11 l 1.4,-3 c 0.49,-1 0.91,-2 0.92,-2.06 a 14,14 0 0 1 1.07,-1.82 5.83,5.83 0 0 0 0.92,-1.8 0.08,0.08 0 0 0 -0.07,0 z m -100.09,0.61 c -0.28,0 -0.08,0.54 0.57,1.55 a 54.6,54.6 0 0 1 3.3,5.9 c 2.23,4.35 3.64,6.49 5.31,8.09 a 15.16,15.16 0 0 0 6.05,3.39 4.75,4.75 0 0 1 1.35,0.56 14.55,14.55 0 0 1 -2.4,-0.22 c -1.37,-0.26 -10.71,-1.19 -15.6,-1.54 -6.24,-0.45 -11.47,-2.32 -14.86,-5.34 -1.88,-1.68 -2.56,-1.74 -1.38,-0.12 0.41,0.56 1,1.43 1.4,1.95 a 29.8,29.8 0 0 0 11.07,8.64 16.9,16.9 0 0 0 4.71,1.62 c 2.82,0.72 7.8,0.78 12.27,0.15 a 28.92,28.92 0 0 0 3.69,-0.65 9.1,9.1 0 0 1 1.77,-0.44 c 0.82,-0.15 2.56,-0.57 3.86,-0.95 1.3,-0.38 3.84,-1 5.66,-1.39 l 3.29,-0.71 -1.56,-0.39 a 20.74,20.74 0 0 1 -2.59,-0.85 c -2.71,-1.1 -5.59,-1.85 -8,-3.74 -0.61,-0.45 -2.39,-2.06 -3.95,-3.58 -4.17,-4 -8.28,-7.78 -10.44,-9.52 -2.16,-1.74 -3.2,-2.44 -3.57,-2.41 z m 59.69,20 a 35.63,35.63 0 0 0 -5.48,0.53 15.73,15.73 0 0 0 -1.92,0.46 c -1.93,0.64 -2.46,0.65 -3.68,0.12 -1,-0.43 -2.32,-0.81 -7.48,-0.82 a 26.94,26.94 0 0 0 -8.77,1.18 c -1.73,0.34 -3.34,1.16 -5,1.66 -1.09,0.45 -2.84,1.14 -3.89,1.54 -1.05,0.4 -2.84,1.15 -4,1.69 a 29.29,29.29 0 0 1 -9.81,2.45 21.92,21.92 0 0 1 -10.53,-2 c -2.47,-1.16 -2.62,-1.21 -2.62,-0.77 a 26.51,26.51 0 0 0 10.8,7.31 c 1.34,0.71 7.12,1.58 8.9,1.34 a 53.47,53.47 0 0 0 6.52,-1.34 35.33,35.33 0 0 0 6.24,-3 c 2.13,-1.29 4.11,-2.75 6.19,-4.09 3.4,-2.6 7.93,-4.12 10.41,-3.5 0.8,0.2 0.66,0.32 -1.95,1.66 a 54.5,54.5 0 0 0 -10.37,6.85 c -3.76,3 -6.27,5.41 -6.12,5.81 a 11,11 0 0 0 1.68,1.57 8.36,8.36 0 0 0 1.93,1.29 c 0.2,0 0.77,-0.53 1.26,-1.17 1.72,-2.25 8.43,-8.55 10.17,-9.54 1.74,-0.99 3.09,-2.48 4.91,-3.32 a 10.09,10.09 0 0 0 1.69,-1 c 0.95,-0.9 3.88,0.07 6.68,2.19 l 2.05,1.55 c 2.1,1.6 3.69,2.89 5.17,4.22 1.78,1.61 3.21,3.37 5,4.91 1.2,1.24 2.07,1.88 2.44,1.81 0.77,-0.13 3.28,-2.74 3.09,-3.22 -0.33,-0.86 -5.33,-5 -9.26,-7.67 -1.48,-1 -2.75,-1.9 -2.84,-2 a 6.38,6.38 0 0 0 -1.1,-0.68 l -3.26,-1.74 -2.32,-1.25 1,-0.2 c 2.91,-0.58 5.34,0.17 9.5,3 a 46.83,46.83 0 0 0 5,3.4 27.55,27.55 0 0 0 15.72,4.84 c 4.54,0 7.43,-0.81 11.81,-3.29 2.82,-1.6 7.16,-5.32 6.71,-5.76 a 5.38,5.38 0 0 0 -2,0.82 c -3.27,1.78 -5.68,2.28 -10.83,2.28 a 26.07,26.07 0 0 1 -11,-2.26 c -2.87,-1.41 -5.92,-2.51 -8.9,-3.67 a 23.8,23.8 0 0 0 -3.55,-1.06 26.19,26.19 0 0 0 -7.58,-1.07 z"
     style="display:inline;fill:#323035"
     id="path12"
     inkscape:connector-curvature="0" />
</svg>
