<?xml version="1.0" encoding="UTF-8" standalone="no"?>
<!-- Created with Inkscape (http://www.inkscape.org/) -->

<svg
   xmlns:dc="http://purl.org/dc/elements/1.1/"
   xmlns:cc="http://creativecommons.org/ns#"
   xmlns:rdf="http://www.w3.org/1999/02/22-rdf-syntax-ns#"
   xmlns:svg="http://www.w3.org/2000/svg"
   xmlns="http://www.w3.org/2000/svg"
   xmlns:sodipodi="http://sodipodi.sourceforge.net/DTD/sodipodi-0.dtd"
   xmlns:inkscape="http://www.inkscape.org/namespaces/inkscape"
   id="svg2"
   sodipodi:version="0.32"
   inkscape:version="0.92.4 (5da689c313, 2019-01-14)"
   width="800.01117"
   height="386.52576"
   version="1.0"
   sodipodi:docname="red-bull-seeklogo.com.svg">
  <metadata
     id="metadata7">
    <rdf:RDF>
      <cc:Work
         rdf:about="">
        <dc:format>image/svg+xml</dc:format>
        <dc:type
           rdf:resource="http://purl.org/dc/dcmitype/StillImage" />
        <dc:title></dc:title>
        <dc:date>2007.2.18</dc:date>
        <dc:creator>
          <cc:Agent>
            <dc:title>Rico Shen</dc:title>
          </cc:Agent>
        </dc:creator>
      </cc:Work>
    </rdf:RDF>
  </metadata>
  <defs
     id="defs5" />
  <sodipodi:namedview
     inkscape:window-height="1017"
     inkscape:window-width="1920"
     inkscape:pageshadow="2"
     inkscape:pageopacity="0.0"
     guidetolerance="10000"
     gridtolerance="10000"
     objecttolerance="10000"
     borderopacity="1.0"
     bordercolor="#666666"
     pagecolor="#ffffff"
     id="base"
     inkscape:object-bbox="true"
     inkscape:object-points="true"
     inkscape:object-nodes="true"
     inkscape:grid-points="true"
     inkscape:guide-points="true"
     showgrid="true"
     inkscape:zoom="1.281631"
     inkscape:cx="406.21633"
     inkscape:cy="294.32734"
     inkscape:window-x="-8"
     inkscape:window-y="-8"
     inkscape:current-layer="layer1"
     inkscape:pagecheckerboard="true"
     inkscape:window-maximized="1" />
  <path
     id="path1877"
     d="m 388.07175,385.97585 c -20.4875,-2.85107 -41.45123,-14.5361 -53.82808,-30.00336 l -4.72991,-5.91095 -2.25022,2.87524 c -1.76362,2.25349 -3.38397,3.03118 -7.49316,3.59634 -2.88362,0.39659 -8.47157,2.01389 -12.41766,3.59398 -3.95321,1.58294 -9.07719,2.8729 -11.41175,2.8729 -3.64258,0 -4.74189,-0.54687 -7.83561,-3.89798 -1.97923,-2.14387 -4.69548,-4.05638 -6.03612,-4.25 -1.62275,-0.23436 -3.35062,-1.8562 -5.1692,-4.85202 -5.03954,-8.30185 -3.31024,-11.39907 6.51315,-11.66521 9.39268,-0.25446 13.81976,-1.84361 10.6292,-3.81549 -1.44277,-0.89169 -33.11224,-1.137 -36.16214,-0.28014 -1.69927,0.47743 -3.24822,2.07093 -4.37415,4.5 -2.41871,5.21809 -5.14374,7.95789 -10.98137,11.04092 -4.50038,2.37676 -5.97431,2.62849 -14.39963,2.45945 -8.81057,-0.17678 -9.57699,-0.0273 -12.5,2.43762 -4.28317,3.61194 -8.95138,5.40537 -12.31754,4.73214 -2.39484,-0.47897 -3.40779,0.0803 -6.61363,3.65137 l -3.78566,4.21699 -6.69855,-0.61406 c -3.6842,-0.33771 -7.34694,-0.20803 -8.13942,0.28816 -1.58571,0.99291 -5.8512,-0.79136 -7.95666,-3.32828 -1.01697,-1.22537 -0.84796,-2.61615 0.9007,-7.41201 1.71992,-4.71704 3.36747,-6.97303 8.19706,-11.2242 6.59859,-5.80833 10.21465,-6.73174 13.76811,-3.51592 2.40174,2.17354 4.4615,0.95349 5.50768,-3.26236 1.14983,-4.63358 4.36765,-7.20898 9.00716,-7.20898 2.27401,0 4.97166,-0.6121 5.99478,-1.36023 1.64907,-1.20582 1.73335,-1.85852 0.74248,-5.75 -0.61477,-2.41437 -1.39502,-6.12399 -1.73389,-8.2436 l -0.61613,-3.85382 -4.45719,0.66839 c -9.96183,1.49387 -19.63172,-4.15995 -22.88488,-13.38041 -2.76111,-7.82578 0.0121,-15.5706 8.37699,-23.39501 2.80206,-2.62102 5.09466,-4.91355 5.09466,-5.09454 0,-0.18101 -1.57928,-0.58537 -3.5095,-0.89862 -4.41047,-0.71571 -9.07523,-3.98843 -11.00559,-7.72134 -1.88109,-3.63764 -1.91334,-10.0035 -0.0635,-12.5297 1.38862,-1.8963 1.57065,-1.86763 7.88225,1.24149 3.55344,1.7504 8.20129,3.49805 10.32856,3.88362 8.46631,1.53459 12.39024,5.32296 12.33231,11.90628 -0.0477,5.42496 -1.78296,8.21614 -8.11608,13.05506 -9.37163,7.16054 -12.24312,14.0778 -7.72114,18.59977 1.82399,1.82399 2.93944,2.05371 7.82239,1.61093 6.08139,-0.55144 12.97481,-3.49491 17.05027,-7.28045 C 227.47568,288.31093 236.88076,284 241.46349,284 c 5.85767,0 10.386,-1.72287 14.75262,-5.61284 4.94778,-4.40771 10.98109,-7.38387 15.00522,-7.4019 3.60026,-0.0161 5.38683,-0.88171 11.71362,-5.67512 2.31565,-1.75444 8.35731,-4.57146 13.42592,-6.26007 5.0686,-1.68861 10.86994,-4.19433 12.89187,-5.56826 5.26525,-3.57783 12.74192,-5.13542 17.50105,-3.64596 l 3.75738,1.17595 5.25492,-5.90376 c 11.01874,-12.37922 26.51296,-21.88003 42.74508,-26.21053 9.62401,-2.56757 29.58702,-3.08504 39,-1.01095 9.46656,2.0859 20.78587,6.81427 28.70856,11.99233 7.01218,4.58295 18.36801,15.01904 21.43345,19.69748 1.35713,2.07126 1.68124,2.1367 4.16482,0.84099 4.78105,-2.49432 12.71001,-1.17681 19.11638,3.17643 1.9313,1.31234 7.65849,3.76767 12.72709,5.45628 5.06861,1.68861 11.11027,4.50563 13.42592,6.26007 6.32679,4.79341 8.11336,5.65899 11.71362,5.67512 4.02413,0.018 10.05744,2.99419 15.00522,7.4019 4.36662,3.88997 8.89495,5.61284 14.75262,5.61284 4.58273,0 13.98781,4.31093 18.45232,8.45782 4.07546,3.78554 10.96888,6.72901 17.05027,7.28045 4.88295,0.44278 5.9984,0.21306 7.82239,-1.61093 4.52198,-4.52197 1.65049,-11.43923 -7.72114,-18.59977 -6.33312,-4.83892 -8.06835,-7.6301 -8.11608,-13.05506 -0.0579,-6.58332 3.866,-10.37169 12.33231,-11.90628 2.12727,-0.38557 6.77512,-2.13322 10.32856,-3.88362 6.3116,-3.10912 6.49363,-3.13779 7.88225,-1.24149 1.84987,2.5262 1.81762,8.89206 -0.0635,12.5297 -1.93036,3.73291 -6.59512,7.00563 -11.00559,7.72134 -1.93022,0.31325 -3.5095,0.72638 -3.5095,0.9181 0,0.19171 2.05679,2.24443 4.57065,4.56164 8.58551,7.91384 11.64489,16.13146 8.901,23.90843 -3.25316,9.22046 -12.92305,14.87428 -22.88488,13.38041 l -4.45719,-0.66839 -0.61613,3.85382 c -0.33887,2.11961 -1.11912,5.82923 -1.73389,8.2436 -0.99087,3.89148 -0.90659,4.54418 0.74248,5.75 1.02312,0.74813 3.72077,1.36023 5.99478,1.36023 4.63951,0 7.85733,2.5754 9.00716,7.20898 1.04618,4.21585 3.10594,5.4359 5.50768,3.26236 3.55346,-3.21582 7.16952,-2.29241 13.76811,3.51592 4.82959,4.25117 6.47714,6.50716 8.19706,11.2242 1.74866,4.79586 1.91767,6.18664 0.9007,7.41201 -2.10546,2.53692 -6.37095,4.32119 -7.95666,3.32828 -0.79248,-0.49619 -4.45522,-0.62587 -8.13942,-0.28816 l -6.69855,0.61406 -3.78566,-4.21699 c -3.20584,-3.5711 -4.21879,-4.13034 -6.61363,-3.65137 -3.36616,0.67323 -8.03437,-1.1202 -12.31754,-4.73214 -2.92301,-2.46495 -3.68943,-2.6144 -12.5,-2.43762 -8.42532,0.16904 -9.89925,-0.0827 -14.39963,-2.45945 -5.83763,-3.08303 -8.56266,-5.82283 -10.98137,-11.04092 -1.12593,-2.42907 -2.67488,-4.02257 -4.37415,-4.5 -3.0499,-0.85686 -34.71937,-0.61155 -36.16214,0.28014 -3.19056,1.97188 1.23652,3.56103 10.6292,3.81549 6.3153,0.17111 9.41977,1.67312 9.37866,4.53765 -0.0128,0.89517 -1.25035,3.87756 -2.75,6.62756 -1.96797,3.60879 -3.42164,5.09795 -5.22444,5.35202 -1.37379,0.19362 -4.11716,2.10613 -6.09639,4.25 -3.08522,3.3419 -4.19836,3.89798 -7.8028,3.89798 -2.31231,0 -7.66894,-1.3229 -11.90361,-2.93982 -4.23467,-1.61687 -9.8244,-3.21758 -12.42161,-3.55709 -3.64644,-0.47668 -5.25539,-1.29857 -7.06261,-3.60777 l -2.34039,-2.99046 -4.4374,5.63191 c -9.84829,12.4994 -28.32347,24.34198 -44.38254,28.44921 -8.98628,2.29831 -24.60864,3.22641 -33.49427,1.98987 z"
     style="display:inline;fill:#daa44b"
     sodipodi:nodetypes="ccccsssssssssssssscccssssssssscccssssssssssssssssssscccsssssssssssssssssssssssscccssssssssscccssssssssssssssscccsc"
     inkscape:connector-curvature="0" />
  <path
     id="path1875"
     d="m 183.15428,364.1096 c -2.42623,-1.53733 -0.3828,-7.03564 3.45668,-9.30097 1.87012,-1.10341 3.40021,-2.39011 3.40021,-2.85937 0,-0.46925 2.03018,-2.24998 4.51151,-3.95718 2.86463,-1.97091 5.40786,-4.87286 6.967,-7.94966 2.34068,-4.6191 2.69376,-4.87844 7.55196,-5.54661 3.06136,-0.42104 6.15492,-1.61137 7.74706,-2.98086 2.41947,-2.08114 2.54071,-2.52107 1.39052,-5.04548 -0.69304,-1.52103 -1.65195,-5.8865 -2.13091,-9.70103 -0.47897,-3.81452 -1.03306,-7.09769 -1.2313,-7.29593 -0.19824,-0.19824 -2.82315,-0.0333 -5.83314,0.36642 -10.80781,1.43543 -16.7633,-1.11065 -20.7227,-8.85935 -4.26696,-8.35064 -2.1896,-14.26477 8.35262,-23.77949 7.69609,-6.94601 7.85382,-8.66311 0.86811,-9.45049 -5.71824,-0.64454 -9.36059,-3.15042 -11.84309,-8.14788 -1.47936,-2.97806 -1.64574,-4.26659 -0.79265,-6.13891 l 1.07971,-2.3697 4.70194,2.62796 c 2.58607,1.44539 6.98348,2.98863 9.77202,3.42944 11.90745,1.88233 15.33237,10.99953 6.84853,18.23089 -10.51428,8.96204 -13.30704,12.14747 -13.89797,15.85208 -1.3357,8.37356 4.02084,13.42201 13.23239,12.47129 6.05389,-0.62482 9.92592,-2.41357 17.15106,-7.9232 6.04505,-4.60974 15.3935,-8.72359 19.9016,-8.75784 4.94116,-0.0375 11.56957,-2.8174 15.37573,-6.44837 4.68681,-4.47107 7.11556,-5.60224 14.16939,-6.59929 4.96661,-0.70204 6.68603,-1.50984 10.29561,-4.83704 3.15121,-2.9047 6.2909,-4.57727 11.50983,-6.13153 3.94712,-1.1755 10.53889,-3.90807 14.64838,-6.07238 8.30173,-4.37222 14.14772,-5.08673 19.77406,-2.41685 5.19008,2.46286 24.03191,17.93801 28.19958,23.16086 2.11581,2.65147 5.30258,6.48809 7.08172,8.52582 4.79172,5.48811 7.40531,11.29372 8.41601,18.69455 1.26305,9.24862 5.6916,22.76675 8.42444,25.71553 1.26389,1.36374 3.04429,4.05228 3.95644,5.97449 0.91215,1.92221 3.48521,4.81824 5.7179,6.43559 3.19754,2.3163 3.71365,3.07335 2.43081,3.56563 -2.60167,0.99835 -6.68672,-0.4772 -8.99348,-3.24852 -6.16378,-7.40503 -8.96126,-10.34499 -9.41343,-9.89281 -0.27624,0.27623 0.0551,1.17388 0.73638,1.99473 0.68126,0.82086 1.79326,3.41924 2.47112,5.77416 0.97197,3.37669 2.20837,4.9158 5.84956,7.2817 5.41872,3.52087 5.80444,4.5 1.77273,4.5 -3.81362,0 -7.72561,-1.72264 -11.83185,-5.21016 -3.89363,-3.30695 -4.46886,-3.37071 -8.00569,-0.88748 -1.83755,1.29014 -5.12312,2.07009 -10.20951,2.42361 -4.125,0.28672 -9.17305,1.23066 -11.21788,2.09765 -4.70022,1.9929 -7.2214,1.99425 -9.21069,0.005 -2.02358,-2.02358 -2.00504,-5.83716 0.0436,-8.96376 1.53837,-2.34785 1.51614,-2.46481 -0.46862,-2.46481 -2.51307,0 -2.00042,-2.2192 1.38604,-6 1.23159,-1.375 2.97718,-3.96249 3.87909,-5.75 l 1.63984,-3.25 h -4.01133 c -2.20623,0 -6.02832,0.53947 -8.49354,1.19881 -2.46521,0.65935 -4.78058,0.90044 -5.14526,0.53577 -0.36468,-0.36469 0.12223,-2.31793 1.08202,-4.34053 2.20112,-4.63851 3.32058,-12.00887 1.66895,-10.98811 -0.63371,0.39166 -1.1522,1.74302 -1.1522,3.00304 0,1.26002 -1.35282,4.15845 -3.00627,6.44099 -2.383,3.28962 -3.63346,4.15003 -6.03139,4.15003 -3.36016,0 -4.8872,2.26335 -3.29411,4.88248 5.72817,9.41744 6.7139,12.23386 5.66161,16.17628 -1.16819,4.37663 -0.26351,5.11233 2.11346,1.71873 2.30159,-3.28598 1.91154,-6.83098 -1.4433,-13.11784 -1.65,-3.09201 -3,-5.88524 -3,-6.20718 0,-0.32192 1.22367,-0.44292 2.71926,-0.26889 4.07583,0.47428 8.78074,7.91912 8.78074,13.89426 0,6.1743 -3.97347,11.54723 -9.26906,12.53365 -2.05202,0.38225 -7.52785,1.97603 -12.16853,3.54175 -11.27397,3.80374 -13.10463,3.70717 -17.12657,-0.90324 -1.79924,-2.0625 -4.14468,-3.98025 -5.21208,-4.26168 -2.06129,-0.54346 -8.44317,-8.60224 -7.53303,-9.51239 0.29593,-0.29592 2.79303,-0.80511 5.54912,-1.13152 5.42793,-0.64286 4.9092,-0.95761 11.38093,6.90559 2.15214,2.61487 3.88748,3.74888 5.73281,3.74626 3.02749,-0.004 8.94428,-3.30594 9.76711,-5.45021 0.90598,-2.36093 -2.40839,-6.78677 -8.24179,-11.00568 -3.01121,-2.17782 -6.46582,-5.55282 -7.67692,-7.5 l -2.20199,-3.54037 -0.5,3.5 -0.5,3.5 -5,-0.2688 c -2.75,-0.14783 -10.4,-0.43144 -17,-0.63024 -6.6,-0.1988 -12.58546,-0.41535 -13.30103,-0.4812 -2.27952,-0.20984 -4.43745,-7.04379 -3.7248,-11.79609 0.38302,-2.55412 0.25421,-4.32367 -0.31471,-4.32367 -0.5297,0 -1.27559,2.69255 -1.65754,5.98345 -1.59143,13.71191 -7.70753,19.19575 -23.50192,21.07242 -5.225,0.62083 -11.34114,1.79611 -13.59142,2.61175 -4.1532,1.50536 -9.40858,5.62365 -9.40858,7.37285 0,1.39564 1.11252,1.17511 2.38976,-0.47371 0.61063,-0.78828 3.31476,-2.58828 6.00918,-4 C 215.47997,345.43439 217.6604,345 224.29409,345 c 11.24222,0 15.24839,-1.43653 21.38084,-7.66672 3.79657,-3.85707 5.42196,-4.92664 6.13899,-4.03967 1.23838,1.53191 -3.45211,10.55206 -6.29846,12.11237 -1.09764,0.60171 -3.34764,1.99401 -5,3.09402 -2.5768,1.71542 -4.39798,1.96274 -12.79871,1.73811 l -9.79442,-0.26188 -4.59938,3.51188 c -3.86649,2.9523 -5.40955,3.51189 -9.6837,3.51189 -4.65564,0 -5.39259,0.33725 -8.74067,4 -2.89045,3.16211 -4.36135,3.99678 -7.02189,3.98469 -1.85103,-0.008 -3.97612,-0.40222 -4.72241,-0.87509 z m 175.41576,-23.54228 c 1.51196,-1.11593 1.67612,-1.70153 0.74248,-2.64864 -0.93999,-0.95358 -1.75611,-0.85073 -3.78187,0.47661 -2.53521,1.66112 -2.61694,3.60471 -0.15159,3.60471 0.68742,0 2.12336,-0.64471 3.19098,-1.43268 z m 9.44113,-21.88554 c 0,-3.54599 -5.35826,-11.68178 -7.69368,-11.68178 -0.69612,0 -2.18396,1.80001 -3.30632,4 -2.14637,4.20723 -1.79625,5.03058 1.04555,2.45878 1.54801,-1.40094 1.98755,-1.30181 4.82874,1.08889 1.90947,1.60671 3.12571,3.5683 3.12571,5.04122 0,1.32612 0.45,2.41111 1,2.41111 0.55,0 1,-1.4932 1,-3.31822 z m -39.03701,-35.85365 c -1.02879,-3.72596 -3.50769,-6.61676 -4.67391,-5.45054 -0.36443,0.36442 0.43395,2.87545 1.77416,5.58006 2.72275,5.49465 4.43158,5.41832 2.89975,-0.12952 z M 605.12376,361 c -3.34808,-3.66275 -4.08503,-4 -8.74067,-4 -4.27415,0 -5.81721,-0.55959 -9.6837,-3.51189 l -4.59938,-3.51188 -9.79442,0.26188 c -8.40073,0.22463 -10.22191,-0.0227 -12.79871,-1.73811 -1.65236,-1.10001 -3.90236,-2.49231 -5,-3.09402 -2.84635,-1.56031 -7.53684,-10.58046 -6.29846,-12.11237 0.71703,-0.88697 2.34242,0.1826 6.13899,4.03967 6.11244,6.20987 10.1436,7.66672 21.21406,7.66672 8.20832,0 13.73,1.81757 18.21469,5.99568 2.37662,2.21416 3.23501,2.4914 3.23501,1.04479 0,-1.7492 -5.25538,-5.86749 -9.40858,-7.37285 -2.25028,-0.81564 -8.30541,-1.99165 -13.45584,-2.61336 -16.64788,-2.00954 -21.8413,-6.6872 -23.65325,-21.30426 -0.39203,-3.16251 -1.1385,-5.75 -1.65883,-5.75 -0.54883,0 -0.67381,1.81536 -0.29767,4.32367 0.71265,4.7523 -1.44528,11.58625 -3.7248,11.79609 -0.71557,0.0659 -6.70103,0.2824 -13.30103,0.4812 -6.6,0.1988 -14.25,0.48241 -17,0.63024 l -5,0.2688 -0.5,-3.5 -0.5,-3.5 -2.20199,3.54037 c -1.2111,1.94718 -4.66571,5.32218 -7.67692,7.5 -5.8334,4.21891 -9.14777,8.64475 -8.24179,11.00568 0.82283,2.14427 6.73962,5.44594 9.76711,5.45021 1.84533,0.003 3.58067,-1.13139 5.73281,-3.74626 6.47173,-7.8632 5.953,-7.54845 11.38093,-6.90559 2.75609,0.32641 5.25319,0.8356 5.54912,1.13152 0.91014,0.91015 -5.47174,8.96893 -7.53303,9.51239 -1.0674,0.28143 -3.41284,2.19918 -5.21208,4.26168 -4.02194,4.61041 -5.8526,4.70698 -17.12657,0.90324 -4.64068,-1.56572 -10.11651,-3.1595 -12.16853,-3.54175 -5.29559,-0.98642 -9.26906,-6.35935 -9.26906,-12.53365 0,-5.97514 4.70491,-13.41998 8.78074,-13.89426 1.49559,-0.17403 2.71926,-0.053 2.71926,0.26889 0,0.32194 -1.35,3.11517 -3,6.20718 -3.35484,6.28686 -3.74489,9.83186 -1.4433,13.11784 2.3938,3.41762 3.27896,2.64781 2.08761,-1.81558 -0.75071,-2.81255 -0.76134,-4.55764 -0.035,-5.75 4.01077,-6.58423 6.55806,-12.33342 6.05056,-13.65594 C 486.31281,325.62249 484.86369,325 483.04883,325 c -2.39793,0 -3.64839,-0.86041 -6.03139,-4.15003 -1.65345,-2.28254 -3.00627,-5.18097 -3.00627,-6.44099 0,-1.26002 -0.51849,-2.61138 -1.1522,-3.00304 -1.65163,-1.02076 -0.53217,6.3496 1.66895,10.98811 0.95979,2.0226 1.4467,3.97584 1.08202,4.34053 -0.36468,0.36467 -2.68005,0.12358 -5.14526,-0.53577 C 467.99946,325.53947 464.17737,325 461.97114,325 h -4.01133 l 1.63984,3.25 c 0.90191,1.78751 2.6475,4.375 3.87909,5.75 3.38646,3.7808 3.89911,6 1.38604,6 -1.98476,0 -2.00699,0.11696 -0.46862,2.46481 2.04862,3.1266 2.06716,6.94018 0.0436,8.96376 -1.98929,1.9893 -4.51047,1.98795 -9.21069,-0.005 -2.04483,-0.86699 -7.09288,-1.81093 -11.21788,-2.09765 -5.08639,-0.35352 -8.37196,-1.13347 -10.20951,-2.42361 -3.53683,-2.48323 -4.11206,-2.41947 -8.00569,0.88748 -4.10624,3.48752 -8.01823,5.21016 -11.83185,5.21016 -4.03171,0 -3.64599,-0.97913 1.77273,-4.5 3.64119,-2.3659 4.87759,-3.90501 5.84956,-7.2817 0.67786,-2.35492 1.78986,-4.9533 2.47112,-5.77416 0.68125,-0.82085 1.01262,-1.7185 0.73638,-1.99473 -0.45217,-0.45218 -3.24965,2.48778 -9.41343,9.89281 -2.30676,2.77132 -6.39181,4.24687 -8.99348,3.24852 -1.28284,-0.49228 -0.76673,-1.24933 2.43081,-3.56563 2.23269,-1.61735 4.80575,-4.51338 5.7179,-6.43559 0.91215,-1.92221 2.69255,-4.61075 3.95644,-5.97449 2.73284,-2.94878 7.16139,-16.46691 8.42444,-25.71553 1.0107,-7.40083 3.62429,-13.20644 8.41601,-18.69455 1.77914,-2.03773 4.96591,-5.87435 7.08172,-8.52582 4.16767,-5.22285 23.0095,-20.698 28.19958,-23.16086 5.62634,-2.66988 11.47233,-1.95537 19.77406,2.41685 4.10949,2.16431 10.70126,4.89688 14.64838,6.07238 5.21893,1.55426 8.35862,3.22683 11.50983,6.13153 3.60349,3.32157 5.33228,4.13547 10.26534,4.83276 6.9681,0.98492 10.61755,2.71141 14.61114,6.9122 3.0108,3.16703 8.8196,5.47442 16.54604,6.57251 5.94431,0.84481 12.34495,3.77225 18.49111,8.45723 7.05279,5.37608 10.96247,7.17 16.97976,7.79104 9.21155,0.95072 14.56809,-4.09773 13.23239,-12.47129 -0.59093,-3.70461 -3.38369,-6.89004 -13.89797,-15.85208 -8.48384,-7.23136 -5.05892,-16.34856 6.84853,-18.23089 2.78854,-0.44081 7.18595,-1.98405 9.77202,-3.42944 l 4.70194,-2.62796 1.07971,2.3697 c 0.85309,1.87232 0.68671,3.16085 -0.79265,6.13891 -2.4825,4.99746 -6.12485,7.50334 -11.84309,8.14788 -6.98571,0.78738 -6.82798,2.50448 0.86811,9.45049 10.54222,9.51472 12.61958,15.42885 8.35262,23.77949 -3.9594,7.7487 -9.91489,10.29478 -20.7227,8.85935 -3.00999,-0.39976 -5.6349,-0.56466 -5.83314,-0.36642 -0.19824,0.19824 -0.75233,3.48141 -1.2313,7.29593 -0.47896,3.81453 -1.43787,8.18 -2.13091,9.70103 -1.15019,2.52441 -1.02895,2.96434 1.39052,5.04548 1.59214,1.36949 4.6857,2.55982 7.74706,2.98086 4.8582,0.66817 5.21128,0.92751 7.55196,5.54661 1.55914,3.0768 4.10237,5.97875 6.967,7.94966 2.48133,1.7072 4.51151,3.48793 4.51151,3.95718 0,0.46926 1.53009,1.75596 3.40021,2.85937 2.31249,1.3644 3.62627,3.03544 4.10689,5.22368 0.83424,3.79827 -0.39322,4.92972 -5.37262,4.95238 -2.66054,0.0121 -4.13144,-0.82258 -7.02189,-3.98469 z M 446.48402,341.04393 c 0.32498,-0.52585 -0.57156,-1.71774 -1.99233,-2.64864 -2.02576,-1.32734 -2.84188,-1.43019 -3.78187,-0.47661 -0.93364,0.94711 -0.76948,1.53271 0.74248,2.64864 2.2468,1.65828 4.18778,1.84213 5.03172,0.47661 z m -12.47285,-21.45504 c 0,-1.47292 1.21624,-3.43451 3.12571,-5.04122 2.84119,-2.3907 3.28073,-2.48983 4.82874,-1.08889 2.8418,2.5718 3.19192,1.74845 1.04555,-2.45878 -1.12236,-2.19999 -2.6102,-4 -3.30632,-4 -2.33542,0 -7.69368,8.13579 -7.69368,11.68178 0,1.82502 0.45,3.31822 1,3.31822 0.55,0 1,-1.08499 1,-2.41111 z m 41.72585,-42.19637 c -1.17193,-1.17194 -3.65185,1.67996 -4.67124,5.37187 -1.56338,5.66209 -0.0565,5.85784 2.76045,0.35859 1.42357,-2.77914 2.28342,-5.35785 1.91079,-5.73046 z m -301.4689,85.78744 c -0.98871,-0.62788 -0.97971,-1.69898 0.044,-5.23468 1.07252,-3.70439 1.69637,-4.44528 3.74305,-4.44528 2.02216,0 2.41028,0.44164 2.19706,2.5 -0.38444,3.71123 -2.32568,8.00214 -3.61235,7.98469 -0.62077,-0.008 -1.68805,-0.37054 -2.37173,-0.80473 z M 621.14146,361.25 c -0.61179,-1.51249 -1.22889,-3.875 -1.37132,-5.25 -0.21322,-2.05836 0.1749,-2.5 2.19706,-2.5 2.04668,0 2.67053,0.74089 3.74305,4.44528 1.02368,3.5357 1.03268,4.6068 0.044,5.23468 -2.21285,1.40528 -3.47775,0.87606 -4.61276,-1.92996 z m -8.56717,-12.32873 c -3.58789,-3.15019 -3.86543,-4.94921 -0.7541,-4.88799 2.26987,0.0446 6.19098,3.41285 6.19098,5.31799 0,2.85186 -1.86726,2.70416 -5.43688,-0.43 z m -430.38267,0.007 c 0.40508,-2.62592 4.98495,-5.46276 7.35251,-4.55424 1.60548,0.61609 1.49896,0.98296 -1.06127,3.65526 -3.38377,3.53191 -6.77209,4.01608 -6.29124,0.89898 z M 296.32732,346.25 c -0.94088,-2.0625 -1.89326,-4.11405 -2.11642,-4.55901 -0.22315,-0.44494 1.74798,-0.66994 4.38028,-0.5 4.34744,0.28069 4.85762,0.57846 5.56744,3.2494 0.93857,3.53172 -0.43162,5.55961 -3.75647,5.55961 -1.76111,0 -2.8005,-0.95654 -4.07483,-3.75 z m 199.84186,2.44039 c -0.66684,-0.80349 -0.78489,-2.44595 -0.30546,-4.25 0.70982,-2.67094 1.22,-2.96871 5.56744,-3.2494 2.6323,-0.16994 4.60343,0.0551 4.38028,0.5 -0.22316,0.44496 -1.17554,2.49651 -2.11642,4.55901 -1.27433,2.79346 -2.31372,3.75 -4.07483,3.75 -1.30027,0 -2.85323,-0.58931 -3.45101,-1.30961 z M 620.51117,188.06769 C 600.97582,184.8869 586.40042,175.6274 579.78528,162.19524 l -3.27411,-6.64818 -0.284,-38.27352 L 575.94317,79 h 17.034 17.034 v 32.26547 c 0,32.03589 0.0169,32.29736 2.37448,36.74999 6.30928,11.91595 22.0875,14.66388 32.36827,5.63725 7.01497,-6.15921 7.21067,-7.31967 7.23529,-42.90271 l 0.022,-31.75 h 17.034 17.034 l -0.284,38.25 -0.284,38.24999 -2.76051,5.62115 c -8.22746,16.75336 -25.39303,26.72238 -47.23949,27.43463 -5.5,0.17932 -12.25,-0.0403 -15,-0.48808 z m -447,-3.69757 c -21.67037,-3.37043 -40.08101,-20.9216 -47.03367,-44.83794 -1.97783,-6.80351 -1.55156,-19.01661 0.99427,-28.48684 5.36566,-19.959704 20.44203,-34.353826 41.5394,-39.659641 9.02949,-2.270843 26.97106,-1.492467 36,1.561821 13.51865,4.573056 23.70772,13.619512 29.43853,26.137242 3.48592,7.614268 5.7106,19.255228 5.35789,28.035968 l -0.29642,7.37926 -38.75,0.26174 -38.75,0.26177 0.022,2.73823 c 0.0924,11.52011 15.41402,22.02619 28.14142,19.29664 7.26514,-1.55809 11.27334,-3.6925 15.29629,-8.14541 l 3.50665,-3.88145 13.97376,6.15288 13.97376,6.15287 -1.70692,3.00196 c -5.42278,9.53702 -18.14786,18.68289 -30.76987,22.11516 -5.91253,1.6078 -25.22714,2.80382 -30.93705,1.91574 z m 31.5,-72.90996 c 0,-6.687 -7.65245,-15.262982 -15.60651,-17.489981 -12.0264,-3.367184 -25.14783,4.57887 -27.06446,16.389651 L 161.74949,114 h 21.63084 21.63084 z m 93,71.71685 c -9.86545,-3.30949 -16.36732,-7.32595 -23.5829,-14.56807 -8.28965,-8.32013 -12.57352,-16.33193 -14.87351,-27.81679 -4.31329,-21.53819 0.2208,-38.57043 13.93461,-52.345115 12.3916,-12.446601 23.37296,-16.966944 39.40886,-16.222183 11.25286,0.522621 18.37986,2.784586 27.08094,8.594941 3.25786,2.175518 6.17282,3.70605 6.47769,3.401181 0.30487,-0.304869 0.55751,-16.341807 0.56142,-35.637641 C 347.02219,29.2875 347.31226,10.4625 347.66288,6.75 L 348.30038,0 h 16.35539 16.3554 v 91 90.99999 h -17.5 -17.5 v -5.5 c 0,-5.979 -0.67727,-6.61908 -3.5938,-3.39635 -8.09931,8.94964 -31.75774,14.31647 -44.4062,10.07337 z m 33.78019,-30.75477 c 19.69607,-9.81497 19.89724,-39.41129 0.33734,-49.6295 -19.98809,-10.441905 -42.30709,9.84399 -35.72842,32.4738 4.72688,16.25988 21.18194,24.23641 35.39108,17.1557 z M 706.25588,93.25 706.51117,2.5 l 16.75,-0.274179 16.75,-0.2741789 V 92.975821 183.99999 H 723.00588 706.00059 Z M 766.01117,93 V 2 h 17 17 v 91 90.99999 h -17 -17 z m -297.25,89.25948 -36.75,-0.28413 V 95.906239 9.8371203 l 38.75,0.4034347 c 33.78094,0.351701 39.45529,0.632758 44.25,2.191751 17.17257,5.583631 25.50961,13.834807 30.66988,30.354001 2.1127,6.763259 2.50207,9.632695 2.11837,15.611483 -0.57519,8.962712 -4.57202,18.188254 -10.64606,24.573397 -2.2782,2.39489 -4.13326,4.618601 -4.12235,4.94158 0.0109,0.322978 2.34416,1.937233 5.18498,3.587233 8.36832,4.860465 17.32255,14.27717 21.03976,22.12646 2.94733,6.22359 3.24945,7.72457 3.19502,15.87354 -0.0745,11.15195 -1.66923,18.0441 -6.19276,26.76356 -6.26742,12.08096 -18.30374,21.00543 -32.60999,24.17908 -8.84295,1.96168 -14.01445,2.13285 -54.88685,1.81684 z m 43.53212,-31.6117 c 4.33955,-1.82359 9.4006,-7.19025 10.90606,-11.56462 1.71587,-4.98579 1.48554,-14.94634 -0.42973,-18.58316 -1.95317,-3.70879 -6.23262,-7.75429 -10.45601,-9.8844 -3.7601,-1.89645 -21.75153,-4.05051 -27.97356,-3.3492 l -4.32888,0.48793 V 93.023899 78.293472 l 7.25,-0.617309 c 9.69225,-0.825257 15.73462,-3.03334 19.81176,-7.239884 3.04013,-3.136622 3.41373,-4.159522 3.76048,-10.29617 0.47325,-8.375275 -1.87953,-13.7694 -7.54115,-17.289337 -3.48697,-2.167914 -5.04512,-2.378213 -20.03109,-2.703544 l -16.25,-0.352772 v 56.102772 56.102762 h 21.03212 c 15.42057,0 21.89067,-0.36079 24.25,-1.35221 z M 81.547128,177.2482 c -1.630223,-2.61151 -10.067723,-15.94094 -18.75,-29.62097 L 47.011169,122.75448 V 102.94919 83.143913 l 5.75,-0.598233 C 60.100313,81.782112 68.60009,79.344868 72.770017,76.808302 83.357931,70.367674 83.893716,52.25014 73.759408,43.352101 68.051457,38.340453 61.344435,36.601651 47.511169,36.547219 l -12,-0.04722 L 35.25455,108.25 34.997931,179.99999 H 17.498966 0 L 0.255585,94.25 0.511169,8.5 l 35.5,-0.3070258 c 24.176953,-0.2090972 37.254275,0.062103 41,0.850266 14.81654,3.1176468 27.553221,13.3183828 34.861921,27.9207158 12.16093,24.296804 5.99278,47.381992 -16.670644,62.392242 -3.680202,2.437442 -9.375668,5.557602 -12.656589,6.933692 -3.280922,1.37609 -6.085069,2.88631 -6.231438,3.35605 -0.146369,0.46973 10.975354,16.60406 24.714941,35.85405 13.73958,19.25 24.98123,35.3375 24.98144,35.75 2e-4,0.4125 -9.33713,0.7492 -20.74963,0.74821 l -20.750001,-0.002 z"
     style="display:inline;fill:#ba2132"
     inkscape:connector-curvature="0" />
  <g
     inkscape:groupmode="layer"
     id="layer1"
     inkscape:label="Layer 1" />
</svg>
