<?xml version="1.0" encoding="utf-8"?>
<!-- Generator: Adobe Illustrator 24.0.0, SVG Export Plug-In . SVG Version: 6.00 Build 0)  -->
<svg version="1.1" id="Ebene_1" xmlns="http://www.w3.org/2000/svg" xmlns:xlink="http://www.w3.org/1999/xlink" x="0px" y="0px"
	 viewBox="0 0 66.3 66.3" style="enable-background:new 0 0 66.3 66.3;" xml:space="preserve">
<style type="text/css">
	.st0{fill:#124395;}
	.st1{fill:#AF4F98;}
	.st2{fill:#E71F74;}
</style>
<g id="bi_circle">
	<path id="XMLID_3330_" class="st0" d="M33.1,66.3c16,0,29.4-11.4,32.5-26.5H0.7C3.7,54.9,17.1,66.3,33.1,66.3z"/>
	<path id="XMLID_3342_" class="st1" d="M65.6,26.5H0.7C0.2,28.6,0,30.9,0,33.1v0c0,2.3,0.2,4.5,0.7,6.6h64.9
		c0.4-2.1,0.7-4.4,0.7-6.6v0C66.3,30.9,66,28.6,65.6,26.5z"/>
	<path id="XMLID_3347_" class="st2" d="M33.1,0C17.1,0,3.7,11.4,0.7,26.5h64.9C62.5,11.4,49.2,0,33.1,0z"/>
</g>
<g>
</g>
<g>
</g>
<g>
</g>
<g>
</g>
<g>
</g>
<g>
</g>
</svg>
