<?xml version="1.0" encoding="utf-8"?>
<!-- Generator: Adobe Illustrator 24.0.0, SVG Export Plug-In . SVG Version: 6.00 Build 0)  -->
<svg version="1.1" id="Ebene_1" xmlns="http://www.w3.org/2000/svg" xmlns:xlink="http://www.w3.org/1999/xlink" x="0px" y="0px"
	 viewBox="0 0 66.3 66.3" style="enable-background:new 0 0 66.3 66.3;" xml:space="preserve">
<style type="text/css">
	.st0{fill:#931C81;}
	.st1{fill:#FFFFFF;}
	.st2{fill:#A3A3A3;}
	.st3{fill:#221A1D;}
</style>
<g id="asex_circle">
	<path id="XMLID_2043_" class="st0" d="M33.1,66.3c12.3,0,23-6.7,28.7-16.6H4.4C10.2,59.6,20.9,66.3,33.1,66.3z"/>
	<path id="XMLID_2049_" class="st1" d="M0,33.1L0,33.1c0,6,1.6,11.7,4.4,16.6h57.4c2.8-4.9,4.4-10.5,4.4-16.6v0H0z"/>
	<path id="XMLID_2053_" class="st2" d="M66.3,33.1L66.3,33.1c0-6-1.6-11.7-4.4-16.6H4.4C1.6,21.4,0,27.1,0,33.1v0H66.3z"/>
	<path id="XMLID_2057_" class="st3" d="M33.1,0c-12.3,0-23,6.7-28.7,16.6h57.4C56.1,6.7,45.4,0,33.1,0z"/>
</g>
<g>
</g>
<g>
</g>
<g>
</g>
<g>
</g>
<g>
</g>
<g>
</g>
</svg>
