<?xml version="1.0" encoding="utf-8"?>
<!-- Generator: Adobe Illustrator 24.0.0, SVG Export Plug-In . SVG Version: 6.00 Build 0)  -->
<svg version="1.1" id="Ebene_1" xmlns="http://www.w3.org/2000/svg" xmlns:xlink="http://www.w3.org/1999/xlink" x="0px" y="0px"
	 viewBox="0 0 66.3 66.3" style="enable-background:new 0 0 66.3 66.3;" xml:space="preserve">
<style type="text/css">
	.st0{fill:#595957;}
	.st1{fill:#158336;}
	.st2{fill:#FFFFFF;}
	.st3{fill:#AF81B8;}
</style>
<g id="queer_circle">
	<polygon id="XMLID_3304_" class="st0" points="0,33.1 0,33.1 0,33.1 	"/>
	<path id="XMLID_3351_" class="st1" d="M33.1,66.3c14.4,0,26.7-9.2,31.2-22.1H1.9C6.4,57.1,18.7,66.3,33.1,66.3z"/>
	<path id="XMLID_3359_" class="st2" d="M64.4,22.1H1.9C0.7,25.5,0,29.3,0,33.1v0c0,3.9,0.7,7.6,1.9,11h62.5c1.2-3.5,1.9-7.2,1.9-11
		v0C66.3,29.3,65.6,25.5,64.4,22.1z"/>
	<path id="XMLID_3362_" class="st3" d="M33.1,0C18.7,0,6.4,9.2,1.9,22.1h62.5C59.8,9.2,47.6,0,33.1,0z"/>
</g>
<g>
</g>
<g>
</g>
<g>
</g>
<g>
</g>
<g>
</g>
<g>
</g>
</svg>
