<?xml version="1.0" encoding="utf-8"?>
<!-- Generator: Adobe Illustrator 24.0.0, SVG Export Plug-In . SVG Version: 6.00 Build 0)  -->
<svg version="1.1" id="Ebene_1" xmlns="http://www.w3.org/2000/svg" xmlns:xlink="http://www.w3.org/1999/xlink" x="0px" y="0px"
	 viewBox="0 0 66.3 66.3" style="enable-background:new 0 0 66.3 66.3;" xml:space="preserve">
<style type="text/css">
	.st0{fill:#354999;}
	.st1{fill:#201D1E;}
	.st2{fill:#9F4995;}
	.st3{fill:#FFFFFF;}
	.st4{fill:#EE74A1;}
</style>
<g id="fluid_circle">
	<path id="XMLID_3406_" class="st0" d="M33.1,66.3c10.8,0,20.5-5.2,26.5-13.3h-53C12.7,61.1,22.3,66.3,33.1,66.3z"/>
	<path id="XMLID_3409_" class="st1" d="M59.6,53c2.9-3.9,5-8.4,6-13.3H0.7c1,4.9,3.1,9.4,6,13.3H59.6z"/>
	<path id="XMLID_3414_" class="st2" d="M65.6,26.5H0.7C0.2,28.7,0,30.9,0,33.1v0c0,2.3,0.2,4.5,0.7,6.6h64.9
		c0.4-2.1,0.7-4.4,0.7-6.6v0C66.3,30.9,66,28.7,65.6,26.5z"/>
	<path id="XMLID_3417_" class="st3" d="M6.6,13.3c-2.9,3.9-5,8.4-6,13.3h64.9c-1-4.9-3.1-9.4-6-13.3H6.6z"/>
	<path id="XMLID_3419_" class="st4" d="M33.1,0C22.3,0,12.7,5.2,6.6,13.3h53C53.6,5.2,44,0,33.1,0z"/>
</g>
<g>
</g>
<g>
</g>
<g>
</g>
<g>
</g>
<g>
</g>
<g>
</g>
</svg>
