<?xml version="1.0" encoding="utf-8"?>
<!-- Generator: Adobe Illustrator 24.0.0, SVG Export Plug-In . SVG Version: 6.00 Build 0)  -->
<svg version="1.1" id="Ebene_1" xmlns="http://www.w3.org/2000/svg" xmlns:xlink="http://www.w3.org/1999/xlink" x="0px" y="0px"
	 viewBox="0 0 66.3 66.3" style="enable-background:new 0 0 66.3 66.3;" xml:space="preserve">
<style type="text/css">
	.st0{fill:#595957;}
	.st1{fill:#FFFFFF;}
	.st2{fill:#020304;}
	.st3{fill:#73378C;}
	.st4{fill:#305EA9;}
	.st5{fill:#009C45;}
	.st6{fill:#FFE100;}
	.st7{fill:#EE7129;}
	.st8{fill:#E62D3E;}
</style>
<g id="ally_circle">
	<polygon id="XMLID_3313_" class="st0" points="33.1,0 33.1,0 33.1,0 	"/>
	<polygon id="XMLID_3314_" class="st0" points="33.1,0 33.1,0 33.1,0 33.1,0 	"/>
	<polygon id="XMLID_3315_" class="st0" points="0,33.1 0,33.1 0,33.1 0,33.1 	"/>
	<path id="XMLID_3451_" class="st1" d="M64.9,42.4c0.9-2.9,1.3-6.1,1.3-9.3H58L64.9,42.4z"/>
	<path id="XMLID_3453_" class="st1" d="M8.3,33.1H0v0c0,3.2,0.5,6.3,1.3,9.3L8.3,33.1z"/>
	<path id="XMLID_3455_" class="st2" d="M8.3,33.1L8.3,33.1l8.3-11H1.9C0.7,25.5,0,29.3,0,33.1v0H8.3z"/>
	<path id="XMLID_3457_" class="st2" d="M58,33.1L58,33.1h8.3c0-3.9-0.7-7.6-1.9-11H49.7L58,33.1z"/>
	<path id="XMLID_3459_" class="st1" d="M49.7,22.1L49.7,22.1h14.7c-1.5-4.1-3.7-7.9-6.6-11H41.4L49.7,22.1z"/>
	<path id="XMLID_3461_" class="st1" d="M24.9,11H8.4c-2.9,3.2-5.1,6.9-6.6,11h14.7h0L24.9,11z"/>
	<path id="XMLID_3463_" class="st2" d="M8.4,11h16.4l8.3-11h0C23.3,0,14.5,4.3,8.4,11z"/>
	<path id="XMLID_3465_" class="st2" d="M41.4,11h16.4C51.8,4.3,43,0,33.1,0h0L41.4,11z"/>
	<polygon id="XMLID_3468_" class="st1" points="33.1,66.3 33.1,66.3 33.1,66.3 	"/>
	<path id="XMLID_3471_" class="st1" d="M24.9,55.2L19,63.1c4.3,2,9.1,3.2,14.2,3.2h0c5.1,0,9.9-1.1,14.2-3.2l-5.9-7.9H24.9z"/>
	<path id="XMLID_3473_" class="st3" d="M47.3,63.1c4-1.9,7.6-4.6,10.5-7.9H41.4L47.3,63.1z"/>
	<path id="XMLID_3475_" class="st3" d="M8.4,55.2c2.9,3.3,6.5,6,10.5,7.9l5.9-7.9H8.4z"/>
	<polygon id="XMLID_3476_" class="st2" points="24.9,55.2 41.4,55.2 33.1,44.2 33.1,44.2 	"/>
	<polygon id="XMLID_3477_" class="st2" points="33.1,44.2 33.1,44.2 33.1,44.2 	"/>
	<path id="XMLID_3479_" class="st4" d="M41.4,55.2h16.4c2.9-3.2,5.1-6.9,6.6-11H33.1L41.4,55.2z"/>
	<rect id="XMLID_3481_" x="33.1" y="44.2" class="st4" width="31.2" height="0"/>
	<path id="XMLID_3483_" class="st4" d="M33.1,44.2H1.9c1.5,4.1,3.7,7.9,6.6,11h16.4L33.1,44.2z"/>
	<rect id="XMLID_3486_" x="1.9" y="44.2" class="st4" width="31.2" height="0"/>
	<path id="XMLID_3490_" class="st5" d="M8.3,33.1l-7,9.3c0.2,0.6,0.4,1.2,0.6,1.8h31.2h31.2c0.2-0.6,0.4-1.2,0.6-1.8l-7-9.3H8.3z"/>
	<polygon id="XMLID_3491_" class="st5" points="58,33.1 8.3,33.1 8.3,33.1 58,33.1 	"/>
	<polygon id="XMLID_3492_" class="st6" points="49.7,22.1 16.6,22.1 8.3,33.1 58,33.1 	"/>
	<polygon id="XMLID_3493_" class="st6" points="49.7,22.1 16.6,22.1 16.6,22.1 49.7,22.1 	"/>
	<polygon id="XMLID_3494_" class="st7" points="49.7,22.1 41.4,11 24.9,11 16.6,22.1 	"/>
	<rect id="XMLID_3495_" x="33.1" y="0" class="st8" width="0" height="0"/>
	<rect id="XMLID_3496_" x="33.1" y="0" class="st8" width="0" height="0"/>
	<polygon id="XMLID_3497_" class="st8" points="33.1,0 33.1,0 24.9,11 41.4,11 	"/>
</g>
<g>
</g>
<g>
</g>
<g>
</g>
<g>
</g>
<g>
</g>
<g>
</g>
</svg>
