<?xml version="1.0" encoding="UTF-8" standalone="no"?>
<!-- Generator: Adobe Illustrator 24.0.0, SVG Export Plug-In . SVG Version: 6.00 Build 0)  -->

<svg
   xmlns:dc="http://purl.org/dc/elements/1.1/"
   xmlns:cc="http://creativecommons.org/ns#"
   xmlns:rdf="http://www.w3.org/1999/02/22-rdf-syntax-ns#"
   xmlns:svg="http://www.w3.org/2000/svg"
   xmlns="http://www.w3.org/2000/svg"
   xmlns:sodipodi="http://sodipodi.sourceforge.net/DTD/sodipodi-0.dtd"
   xmlns:inkscape="http://www.inkscape.org/namespaces/inkscape"
   version="1.1"
   id="Ebene_1"
   x="0px"
   y="0px"
   viewBox="0 0 66.3 66.3"
   style="enable-background:new 0 0 66.3 66.3;"
   xml:space="preserve"
   sodipodi:docname="demiromantic.svg"
   inkscape:version="0.92.4 (5da689c313, 2019-01-14)"><metadata
   id="metadata15"><rdf:RDF><cc:Work
       rdf:about=""><dc:format>image/svg+xml</dc:format><dc:type
         rdf:resource="http://purl.org/dc/dcmitype/StillImage" /><dc:title></dc:title></cc:Work></rdf:RDF></metadata><defs
   id="defs13" /><sodipodi:namedview
   pagecolor="#ffffff"
   bordercolor="#666666"
   borderopacity="1"
   objecttolerance="10"
   gridtolerance="10"
   guidetolerance="10"
   inkscape:pageopacity="0"
   inkscape:pageshadow="2"
   inkscape:window-width="1920"
   inkscape:window-height="1057"
   id="namedview11"
   showgrid="false"
   inkscape:zoom="3.5595775"
   inkscape:cx="-6.0400427"
   inkscape:cy="33.150002"
   inkscape:window-x="2552"
   inkscape:window-y="-8"
   inkscape:window-maximized="1"
   inkscape:current-layer="bi_circle" />
<style
   type="text/css"
   id="style2">
	.st0{fill:#D2D2D2;}
	.st1{fill:#3DA542;}
	.st2{fill:#FFFFFF;}
</style>
<g
   id="bi_circle">
	<path
   id="XMLID_3330_"
   class="st0"
   d="m 33.1,66.3 c 16,0 29.4,-11.4 32.5,-26.5 H 0.7 c 3,15.1 16.4,26.5 32.4,26.5 z"
   inkscape:connector-curvature="0"
   style="fill:#d2d2d2" />
	<path
   id="XMLID_3342_"
   class="st1"
   d="M 65.6,26.5 H 0.7 C 0.2,28.6 0,30.9 0,33.1 v 0 c 0,2.3 0.2,4.5 0.7,6.6 h 64.9 c 0.4,-2.1 0.7,-4.4 0.7,-6.6 v 0 c 0,-2.2 -0.3,-4.5 -0.7,-6.6 z"
   inkscape:connector-curvature="0"
   style="fill:#3da542" />
	<path
   id="XMLID_3347_"
   class="st2"
   d="M 33.1,0 C 17.1,0 3.7,11.4 0.7,26.5 H 65.6 C 62.5,11.4 49.2,0 33.1,0 Z"
   inkscape:connector-curvature="0"
   style="fill:#ffffff" />
	
<path
   d="M 10.935156,8.4843781 C 4.966406,13.884378 0.020703,22.205287 0,33.153128 0.187148,44.561635 4.808647,52.340469 10.910156,57.700003 L 42.6,33.053128 Z"
   id="path7-3"
   inkscape:connector-curvature="0"
   style="display:inline"
   sodipodi:nodetypes="ccccc" /></g>
</svg>