<?xml version="1.0" encoding="utf-8"?>
<!-- Generator: Adobe Illustrator 24.0.0, SVG Export Plug-In . SVG Version: 6.00 Build 0)  -->
<svg version="1.1" id="Ebene_1" xmlns="http://www.w3.org/2000/svg" xmlns:xlink="http://www.w3.org/1999/xlink" x="0px" y="0px"
	 viewBox="0 0 66.3 66.3" style="enable-background:new 0 0 66.3 66.3;" xml:space="preserve">
<style type="text/css">
	.st0{fill:#ED7AA8;}
	.st1{fill:#F9AAC5;}
	.st2{fill:#FFFFFF;}
	.st3{fill:#C6A3EE;}
	.st4{fill:#90C3E8;}
	.st5{fill:#6992D9;}
</style>
<g id="lesbian_circle">
	<path id="XMLID_3369_" class="st0" d="M33.1,66.3c9,0,17.2-3.6,23.2-9.5H10C15.9,62.7,24.1,66.3,33.1,66.3z"/>
	<path id="XMLID_3366_" class="st1" d="M63.1,47.3H3.2c1.7,3.5,4,6.7,6.7,9.5h46.4C59.1,54.1,61.4,50.9,63.1,47.3z"/>
	<path id="XMLID_3372_" class="st2" d="M63.1,47.3c1.4-2.9,2.4-6.1,2.8-9.5H0.3c0.5,3.3,1.4,6.5,2.8,9.5H63.1z"/>
	<path id="XMLID_3377_" class="st3" d="M65.9,28.4H0.3C0.1,29.9,0,31.5,0,33.1l0,0c0,1.6,0.1,3.2,0.3,4.7h65.6
		c0.2-1.5,0.3-3.1,0.3-4.7l0,0C66.3,31.5,66.2,29.9,65.9,28.4z"/>
	<path id="XMLID_3380_" class="st2" d="M3.2,18.9c-1.4,2.9-2.4,6.1-2.9,9.5h65.6c-0.5-3.3-1.5-6.5-2.9-9.5H3.2z"/>
	<path id="XMLID_3383_" class="st4" d="M56.3,9.5H10c-2.8,2.7-5.1,5.9-6.8,9.5h59.9C61.4,15.4,59.1,12.2,56.3,9.5z"/>
	<path id="XMLID_3385_" class="st5" d="M33.1,0c-9,0-17.2,3.6-23.2,9.5h46.4C50.3,3.6,42.2,0,33.1,0z"/>
</g>
</svg>
