<?xml version="1.0" encoding="utf-8"?>
<!-- Generator: Adobe Illustrator 24.0.0, SVG Export Plug-In . SVG Version: 6.00 Build 0)  -->
<svg version="1.1" id="Ebene_1" xmlns="http://www.w3.org/2000/svg" xmlns:xlink="http://www.w3.org/1999/xlink" x="0px" y="0px"
	 viewBox="0 0 66.3 66.3" style="enable-background:new 0 0 66.3 66.3;" xml:space="preserve">
<style type="text/css">
	.st0{fill:#FFFFFF;}
	.st1{fill:#020304;}
</style>
<g id="straight_circle">
	<path id="XMLID_3421_" class="st0" d="M33.1,66.3c9.8,0,18.6-4.3,24.7-11H8.4C14.5,62,23.3,66.3,33.1,66.3z"/>
	<path id="XMLID_3424_" class="st1" d="M8.4,55.2h49.4c2.9-3.2,5.1-6.9,6.6-11H1.9C3.3,48.3,5.6,52,8.4,55.2z"/>
	<path id="XMLID_3427_" class="st0" d="M64.4,44.2c1.2-3.5,1.9-7.2,1.9-11H0v0c0,3.9,0.7,7.6,1.9,11H64.4z"/>
	<path id="XMLID_3430_" class="st1" d="M66.3,33.1c0-3.9-0.7-7.6-1.9-11H1.9C0.7,25.5,0,29.3,0,33.1v0H66.3z"/>
	<path id="XMLID_3433_" class="st0" d="M64.4,22.1c-1.5-4.1-3.7-7.9-6.6-11H8.4c-2.9,3.2-5.1,6.9-6.6,11H64.4z"/>
	<path id="XMLID_3435_" class="st1" d="M33.1,0C23.3,0,14.5,4.3,8.4,11h49.4C51.8,4.3,42.9,0,33.1,0z"/>
</g>
<g>
</g>
<g>
</g>
<g>
</g>
<g>
</g>
<g>
</g>
<g>
</g>
</svg>
