<?xml version="1.0" encoding="utf-8"?>
<!-- Generator: Adobe Illustrator 24.0.0, SVG Export Plug-In . SVG Version: 6.00 Build 0)  -->
<svg version="1.1" id="Ebene_1" xmlns="http://www.w3.org/2000/svg" xmlns:xlink="http://www.w3.org/1999/xlink" x="0px" y="0px"
	 viewBox="0 0 66.3 66.3" style="enable-background:new 0 0 66.3 66.3;" xml:space="preserve">
<style type="text/css">
	.st0{fill:#E52322;}
	.st1{fill:#204D9B;}
	.st2{fill:#FFED00;}
</style>
<g id="pan_circle">
	<path id="XMLID_3321_" d="M33.1,66.3c14.4,0,26.7-9.2,31.2-22.1H1.9C6.4,57.1,18.7,66.3,33.1,66.3z"/>
	<path id="XMLID_3326_" class="st0" d="M64.4,22.1H1.9C0.7,25.5,0,29.3,0,33.1l0,0c0,3.9,0.7,7.6,1.9,11h62.5
		c1.2-3.5,1.9-7.2,1.9-11l0,0C66.3,29.3,65.6,25.5,64.4,22.1z"/>
	<path id="XMLID_3328_" class="st1" d="M33.1,0C18.7,0,6.4,9.2,1.9,22.1h62.5C59.8,9.2,47.6,0,33.1,0z"/>
	<path class="st2" d="M27.9,39.3c0-0.9,0.3-1.7,0.5-2.6l2.1-7.2c0.2-0.6,0.1-0.9-0.7-0.9c-2.3,0-3.4,0.6-4.2,3.1
		c-0.1,0.2-0.1,0.5-0.3,0.5s-0.5-0.4-0.5-1.3c0-1.8,1.3-4.4,5.6-4.4c1.5,0,3.1,0.1,4.7,0.2c1.2,0.1,2.2,0.1,3.2,0.1
		c0.9,0,1.6-0.3,2.1-0.6c0.4-0.2,0.6-0.4,0.8-0.4c0.3,0,0.4,0.3,0.4,1c0,1-0.7,2.2-1.2,2.2c-0.9,0-2-0.1-2.4-0.1c-0.7,0-1,0.1-1.1,1
		c-0.1,1-0.8,5-0.8,6.3c0,0.8,0.6,1.2,1.2,1.2c0.4,0,0.8,0,1.1-0.2c0.3-0.1,0.4-0.2,0.5-0.2c0.3,0,0.3,0.2,0.3,0.5
		c0,1.1-0.8,2.9-2.4,2.9c-1.1,0-2.1-1.1-2.1-3.3c0-1.7,0.9-6.4,0.9-7.5c0-0.4-0.2-0.8-0.5-0.8l-2.6-0.1c-0.4,0-0.7,0.2-0.8,0.7
		c-1,3.9-1.3,6.4-1.4,8c0,1.1,0.1,1.8,0.1,2.2c0.1,0.6,0.1,0.9-0.3,0.9C29.5,40.5,27.9,39.8,27.9,39.3L27.9,39.3z"/>
</g>
</svg>
