<?xml version="1.0" encoding="UTF-8" standalone="no"?>
<svg
   xmlns:dc="http://purl.org/dc/elements/1.1/"
   xmlns:cc="http://creativecommons.org/ns#"
   xmlns:rdf="http://www.w3.org/1999/02/22-rdf-syntax-ns#"
   xmlns:svg="http://www.w3.org/2000/svg"
   xmlns="http://www.w3.org/2000/svg"
   xmlns:sodipodi="http://sodipodi.sourceforge.net/DTD/sodipodi-0.dtd"
   xmlns:inkscape="http://www.inkscape.org/namespaces/inkscape"
   width="24"
   height="24"
   viewBox="0 0 40 40"
   fill="none"
   version="1.1"
   id="svg6"
   sodipodi:docname="smash.gg.svg"
   inkscape:version="0.92.4 (5da689c313, 2019-01-14)">
  <metadata
     id="metadata12">
    <rdf:RDF>
      <cc:Work
         rdf:about="">
        <dc:format>image/svg+xml</dc:format>
        <dc:type
           rdf:resource="http://purl.org/dc/dcmitype/StillImage" />
        <dc:title></dc:title>
      </cc:Work>
    </rdf:RDF>
  </metadata>
  <defs
     id="defs10" />
  <sodipodi:namedview
     pagecolor="#ffffff"
     bordercolor="#666666"
     borderopacity="1"
     objecttolerance="10"
     gridtolerance="10"
     guidetolerance="10"
     inkscape:pageopacity="0"
     inkscape:pageshadow="2"
     inkscape:window-width="1920"
     inkscape:window-height="1017"
     id="namedview8"
     showgrid="false"
     inkscape:pagecheckerboard="true"
     inkscape:zoom="9.8333333"
     inkscape:cx="-0.66101695"
     inkscape:cy="12"
     inkscape:window-x="-8"
     inkscape:window-y="-8"
     inkscape:window-maximized="1"
     inkscape:current-layer="svg6" />
  <path
     d="M1.25 20h7.5A1.25 1.25 0 0 0 10 18.75v-7.5A1.25 1.25 0 0 1 11.25 10h27.5A1.25 1.25 0 0 0 40 8.75V1.25A1.25 1.25 0 0 0 38.75 0H10A10 10 0 0 0 0 10v8.75A1.25 1.25 0 0 0 1.25 20Z"
     fill="#3f80ff"
     id="path2"
     style="fill:#ffffff;fill-opacity:1" />
  <path
     d="M38.75 20h-7.5A1.25 1.25 0 0 0 30 21.25v7.5A1.25 1.25 0 0 1 28.75 30H1.25A1.25 1.25 0 0 0 0 31.25v7.5A1.25 1.25 0 0 0 1.25 40H30A10 10 0 0 0 40 30V21.25A1.25 1.25 0 0 0 38.75 20Z"
     fill="#ff2768"
     id="path4"
     style="fill:#fffffe;fill-opacity:1" />
</svg>
