<?xml version="1.0" encoding="UTF-8" standalone="no"?>
<svg
   xmlns:dc="http://purl.org/dc/elements/1.1/"
   xmlns:cc="http://creativecommons.org/ns#"
   xmlns:rdf="http://www.w3.org/1999/02/22-rdf-syntax-ns#"
   xmlns:svg="http://www.w3.org/2000/svg"
   xmlns="http://www.w3.org/2000/svg"
   xmlns:sodipodi="http://sodipodi.sourceforge.net/DTD/sodipodi-0.dtd"
   xmlns:inkscape="http://www.inkscape.org/namespaces/inkscape"
   width="78px"
   height="84px"
   viewBox="0 0 78 84"
   version="1.1"
   id="svg15"
   sodipodi:docname="challonge.svg"
   inkscape:version="0.92.4 (5da689c313, 2019-01-14)">
  <metadata
     id="metadata19">
    <rdf:RDF>
      <cc:Work
         rdf:about="">
        <dc:format>image/svg+xml</dc:format>
        <dc:type
           rdf:resource="http://purl.org/dc/dcmitype/StillImage" />
        <dc:title>Slice 1</dc:title>
      </cc:Work>
    </rdf:RDF>
  </metadata>
  <sodipodi:namedview
     pagecolor="#ffffff"
     bordercolor="#666666"
     borderopacity="1"
     objecttolerance="10"
     gridtolerance="10"
     guidetolerance="10"
     inkscape:pageopacity="0"
     inkscape:pageshadow="2"
     inkscape:window-width="1920"
     inkscape:window-height="1017"
     id="namedview17"
     showgrid="false"
     inkscape:pagecheckerboard="true"
     inkscape:zoom="2.8095238"
     inkscape:cx="-5.3135593"
     inkscape:cy="42"
     inkscape:window-x="-8"
     inkscape:window-y="-8"
     inkscape:window-maximized="1"
     inkscape:current-layer="svg15" />
  <!-- Generator: Sketch 3.8.3 (29802) - http://www.bohemiancoding.com/sketch -->
  <title
     id="title2">Slice 1</title>
  <desc
     id="desc4">Created with Sketch.</desc>
  <defs
     id="defs6" />
  <g
     id="Page-1"
     style="fill:#ffffff;fill-rule:evenodd;stroke:none;stroke-width:1;fill-opacity:1">
    <g
       id="logo_challonge_dark"
       transform="translate(0,1)"
       style="fill:#ffffff;fill-opacity:1">
      <g
         id="g3250"
         transform="translate(0.17776)"
         style="fill:#ffffff;fill-opacity:1">
        <g
           id="g3254"
           style="fill:#ffffff;fill-opacity:1">
          <path
             d="M 75.496,17.625 C 53.644,23.23 34.261,33.146 18.695,49.873 c 3.926,4.251 8.416,5.555 13.744,6.55 11.443,-11.805 25.47,-19.303 41.265,-23.855 3.881,-1.12 1.923,-11.453 1.792,-14.943 z"
             id="path3256"
             inkscape:connector-curvature="0"
             style="fill:#ffffff;fill-opacity:1" />
          <path
             d="M 17.925,18.311 C 1.571,27.753 -4.033,48.672 5.408,65.025 10.283,73.468 18.218,79.046 27.002,81.166 53.507,87.551 75.657,59.281 74.72,34.476 59.661,38.948 46.573,46.268 35.865,57.025 67.325,62.447 38.969,84.632 18.814,71.009 4.357,61.237 2.67,42.902 10.885,29.184 15.932,20.755 22.997,17.538 31.518,13.903 c -4.652,0.476 -9.282,1.918 -13.593,4.408 z"
             id="path3258"
             inkscape:connector-curvature="0"
             style="fill:#ffffff;fill-opacity:1" />
          <path
             d="M 75.387,0 C 46.351,8.964 14.974,17.076 13.165,35.94 c -0.402,2.803 0.189,5.862 2.14,9.24 0.625,1.081 1.263,2.048 1.917,2.919 C 32.134,31.207 51.189,21.179 73.827,15.408 77.742,14.41 75.519,3.489 75.387,0 Z"
             id="path3260"
             inkscape:connector-curvature="0"
             style="fill:#ffffff;fill-opacity:1" />
        </g>
      </g>
    </g>
  </g>
</svg>
