<?xml version="1.0" encoding="UTF-8" standalone="no"?>
<svg
   xmlns:dc="http://purl.org/dc/elements/1.1/"
   xmlns:cc="http://creativecommons.org/ns#"
   xmlns:rdf="http://www.w3.org/1999/02/22-rdf-syntax-ns#"
   xmlns:svg="http://www.w3.org/2000/svg"
   xmlns="http://www.w3.org/2000/svg"
   xmlns:sodipodi="http://sodipodi.sourceforge.net/DTD/sodipodi-0.dtd"
   xmlns:inkscape="http://www.inkscape.org/namespaces/inkscape"
   version="1.0"
   width="1210"
   height="1210"
   viewBox="0 0 12100 12100"
   preserveAspectRatio="xMidYMid meet"
   id="svg9"
   sodipodi:docname="leaguelobster.svg"
   inkscape:version="0.92.4 (5da689c313, 2019-01-14)">
  <metadata
     id="metadata15">
    <rdf:RDF>
      <cc:Work
         rdf:about="">
        <dc:format>image/svg+xml</dc:format>
        <dc:type
           rdf:resource="http://purl.org/dc/dcmitype/StillImage" />
        <dc:title></dc:title>
      </cc:Work>
    </rdf:RDF>
  </metadata>
  <defs
     id="defs13" />
  <sodipodi:namedview
     pagecolor="#ffffff"
     bordercolor="#666666"
     borderopacity="1"
     objecttolerance="10"
     gridtolerance="10"
     guidetolerance="10"
     inkscape:pageopacity="0"
     inkscape:pageshadow="2"
     inkscape:window-width="1920"
     inkscape:window-height="1017"
     id="namedview11"
     showgrid="false"
     inkscape:pagecheckerboard="true"
     scale-x="10"
     viewbox-width="12000"
     viewbox-height="12000"
     viewbox-x="0"
     inkscape:zoom="0.45254834"
     inkscape:cx="-607.06809"
     inkscape:cy="712.63909"
     inkscape:window-x="-8"
     inkscape:window-y="-8"
     inkscape:window-maximized="1"
     inkscape:current-layer="svg9"
     fit-margin-top="0.5"
     fit-margin-left="0"
     fit-margin-right="0"
     fit-margin-bottom="0.5" />
  <path
     inkscape:connector-curvature="0"
     style="display:inline;opacity:1;vector-effect:none;fill:#ffffff;fill-opacity:1;fill-rule:nonzero;stroke:none;stroke-width:100;stroke-linecap:butt;stroke-linejoin:miter;stroke-miterlimit:4;stroke-dasharray:none;stroke-dashoffset:52.91338348;stroke-opacity:1;paint-order:normal"
     d="m 3322.9666,55.000001 c -7.2104,0 -14.6596,0.0497 -22.3316,0.14525 -184.1277,2.38955 -496.9011,34.2595 -722.0501,78.864119 C 1862.0751,272.78137 1332.5062,533.314 862.38458,977.95144 548.02742,1275.3201 253.46513,1759.608 168.50379,2113.6186 41.060789,2643.2185 145.84485,3178.5047 477.19447,3679.783 c 410.64847,628.7224 900.59083,957.2168 1370.71243,920.3997 501.2733,-42.4817 937.4438,-478.6223 968.5965,-977.0694 14.1592,-243.5581 -36.8371,-334.166 -260.5694,-461.6101 -249.2206,-144.4355 -509.786,-402.1717 -611.7398,-611.7458 -82.1301,-167.0935 -87.7856,-198.2104 -76.4576,-402.1201 11.3279,-178.4214 28.3264,-252.0945 104.792,-393.6988 192.5796,-359.6741 552.2527,-702.3319 1135.6561,-1078.99837 606.0603,-390.8278 674.0431,-523.95222 325.7,-611.746809 -21.682,-5.57496 -60.448,-8.16646 -110.9181,-8.19332 z m 5642.0134,0.89235 c -164.879,-0.1333 -364.0324,20.04557 -427.7534,49.782639 -184.0839,84.96235 -59.4652,229.42669 518.2737,608.92551 498.4421,322.8569 934.5947,747.6537 1079.0297,1045.0224 133.107,271.8795 147.256,535.2742 45.302,761.8409 -96.29,212.4064 -297.3911,419.1264 -577.7643,600.3791 -286.0368,186.9181 -331.3367,260.5823 -311.512,512.6381 39.6484,489.9494 472.9558,926.0632 965.7333,962.8804 433.305,36.8171 852.452,-218.0817 1263.099,-761.8418 320.023,-424.8117 461.636,-815.6067 464.469,-1282.9001 0,-334.186 -65.151,-591.9302 -240.738,-917.6203 -274.71,-512.6064 -778.805,-979.89174 -1319.728,-1223.45081 -339.846,-152.93322 -866.6303,-291.71318 -1311.2627,-348.355069 -41.065,-4.95618 -92.1887,-7.25719 -147.1483,-7.30097 z M 8833.0653,940.91634 c -5.0676,0.07 -9.3006,1.0665 -12.6193,3.0581 -14.1602,8.4957 -19.8217,65.14856 -11.326,124.62266 8.4967,62.3054 93.4332,271.8795 186.8913,467.2934 189.7474,393.6601 229.4127,555.0721 229.4127,960.0602 0,138.772 11.3111,271.8905 25.4723,294.5475 42.4807,65.1376 226.5944,-19.8327 385.1891,-178.4294 286.0377,-283.2086 269.0373,-600.3911 -50.9853,-1022.3716 -196.4734,-262.8525 -634.3808,-637.71646 -746.6917,-648.54406 -1.8712,-0.1811 -3.6539,-0.2596 -5.3431,-0.2368 z m -5588.9329,11.5628 c -22.657,0 -93.483,36.7973 -152.9561,79.27886 -198.2432,144.4355 -540.8869,495.6139 -657.001,679.6998 -215.2366,334.1859 -215.2664,623.0748 -2.8621,866.634 101.9539,113.2838 305.8913,243.562 385.1902,243.562 48.1441,0 59.4393,-59.4741 93.4242,-467.2935 33.9849,-427.645 67.9967,-560.7505 226.5914,-903.4321 130.2753,-280.3763 175.5822,-498.44906 107.6134,-498.44906 z m 2804.7717,430.12206 c -144.0813,-0.3542 -284.2649,7.4482 -547.6467,23.025 -1186.6305,73.6334 -1702.07,243.5342 -1973.9474,654.1857 -127.443,195.4139 -257.7113,523.9464 -320.0167,804.3226 -70.8021,311.53 -45.305,934.6018 50.9853,1345.2533 212.4044,886.4425 645.7168,1880.4757 1240.4481,2832.0559 138.771,226.5666 305.8764,518.2679 368.1808,648.5442 150.0989,311.5289 370.9692,979.9305 464.4272,1404.7433 93.4571,424.8127 189.7803,1067.6978 161.4598,1093.1858 -11.328,11.329 -127.4619,65.119 -260.5684,121.761 -444.6324,189.749 -877.9259,470.147 -1107.3217,716.539 -339.8473,359.675 -334.2077,591.889 16.9666,747.653 453.1291,201.078 1515.1499,314.362 2378.9265,254.887 991.2186,-70.802 1509.5102,-215.229 1639.7845,-458.788 l 56.6279,-101.972 -76.4576,-158.6 c -152.9312,-311.529 -586.2356,-654.188 -1189.4627,-940.229 -181.2517,-84.963 -339.8633,-155.779 -356.8558,-155.779 -116.114,0 135.9666,-1285.7781 396.5151,-2024.9521 138.771,-393.659 277.539,-674.0084 563.5767,-1132.8051 761.8228,-1220.6275 1234.7508,-2429.9361 1333.8724,-3407.0045 50.9774,-518.2708 -31.1607,-971.4179 -263.3887,-1430.2157 -263.3818,-526.7675 -784.446,-736.3307 -2005.0624,-809.9651 -278.9576,-16.9925 -426.9625,-25.4912 -571.0428,-25.8453 z m -3.8589,1693.9397 c 19.8247,0 96.2903,118.9672 169.9237,260.5714 l 135.9059,263.35 280.3981,42.4816 c 186.9151,28.3205 286.0069,56.6529 294.5026,82.1411 8.4967,22.6569 -70.7842,116.1319 -195.395,229.4157 l -206.7209,189.7554 45.3019,294.5056 c 36.8172,220.9031 39.6355,297.3856 14.1473,314.3781 -16.9924,11.3289 -144.4076,-39.6634 -283.1786,-113.2968 l -249.2424,-130.2653 -269.0313,133.0856 c -215.2366,107.6193 -271.8914,124.6317 -283.2194,90.6468 -8.4967,-22.657 2.8452,-158.6166 28.3344,-303.0531 l 45.302,-263.3499 -203.9007,-203.9435 c -124.6098,-127.444 -195.4387,-218.031 -184.1107,-243.5202 14.1602,-36.8172 339.8801,-104.7931 501.3071,-104.7931 42.4806,0 90.6308,-65.1654 189.7533,-269.0751 73.6324,-147.2687 150.098,-269.0343 169.9227,-269.0343 z"
     id="rect4528" />
</svg>
